<?xml version="1.0" encoding="UTF-8" standalone="no"?>
<!DOCTYPE svg PUBLIC "-//W3C//DTD SVG 1.1//EN"
 "http://www.w3.org/Graphics/SVG/1.1/DTD/svg11.dtd">
<!-- Generated by graphviz version 2.43.0 (0)
 -->
<!-- Title: %3 Pages: 1 -->
<svg width="1800pt" height="429pt"
 viewBox="0.00 0.00 432.00 102.99" xmlns="http://www.w3.org/2000/svg" xmlns:xlink="http://www.w3.org/1999/xlink">
<g id="graph0" class="graph" transform="scale(1.06 1.06) rotate(0) translate(4 400.08)">
<title>%3</title>
<polygon fill="white" stroke="transparent" points="-4,4 -4,-400.08 1691,-400.08 1691,4 -4,4"/>
<!-- root -->
<g id="node1" class="node">
<title>root</title>
<ellipse fill="none" stroke="black" cx="1231.5" cy="-372.04" rx="55.31" ry="24.08"/>
<text text-anchor="middle" x="1231.5" y="-365.84" font-family="Times,serif" font-size="24.00">Start</text>
</g>
<!-- root_SameHand_true -->
<g id="node2" class="node">
<title>root_SameHand_true</title>
<polygon fill="none" stroke="black" points="1223.5,-326 981.5,-326 981.5,-290 1223.5,-290 1223.5,-326"/>
<text text-anchor="middle" x="1102.5" y="-301.8" font-family="Times,serif" font-size="24.00">SameHand = True</text>
</g>
<!-- root&#45;&gt;root_SameHand_true -->
<g id="edge1" class="edge">
<title>root&#45;&gt;root_SameHand_true</title>
<path fill="none" stroke="black" stroke-width="1.5" d="M1195.57,-353.76C1180.61,-346.57 1163.08,-338.14 1147.3,-330.55"/>
<polygon fill="black" stroke="black" stroke-width="1.5" points="1148.77,-327.37 1138.24,-326.19 1145.74,-333.68 1148.77,-327.37"/>
</g>
<!-- root_SameHand_false -->
<g id="node26" class="node">
<title>root_SameHand_false</title>
<polygon fill="none" stroke="black" points="1513.5,-326 1265.5,-326 1265.5,-290 1513.5,-290 1513.5,-326"/>
<text text-anchor="middle" x="1389.5" y="-301.8" font-family="Times,serif" font-size="24.00">SameHand = False</text>
</g>
<!-- root&#45;&gt;root_SameHand_false -->
<g id="edge25" class="edge">
<title>root&#45;&gt;root_SameHand_false</title>
<path fill="none" stroke="black" stroke-width="1.5" d="M1271.37,-355.39C1291.11,-347.63 1315.21,-338.17 1336.48,-329.82"/>
<polygon fill="black" stroke="black" stroke-width="1.5" points="1338,-332.98 1346.03,-326.07 1335.44,-326.47 1338,-332.98"/>
</g>
<!-- root_SameHand_true_SameFinger_true -->
<g id="node3" class="node">
<title>root_SameHand_true_SameFinger_true</title>
<polygon fill="none" stroke="black" points="833,-268 576,-268 576,-232 833,-232 833,-268"/>
<text text-anchor="middle" x="704.5" y="-243.8" font-family="Times,serif" font-size="24.00">SameFinger = True</text>
</g>
<!-- root_SameHand_true&#45;&gt;root_SameHand_true_SameFinger_true -->
<g id="edge2" class="edge">
<title>root_SameHand_true&#45;&gt;root_SameHand_true_SameFinger_true</title>
<path fill="none" stroke="black" stroke-width="1.5" d="M981.47,-289.97C935.35,-283.48 882.59,-276.06 835.58,-269.44"/>
<polygon fill="black" stroke="black" stroke-width="1.5" points="836.03,-265.97 825.64,-268.05 835.06,-272.9 836.03,-265.97"/>
</g>
<!-- root_SameHand_true_SameFinger_false -->
<g id="node17" class="node">
<title>root_SameHand_true_SameFinger_false</title>
<polygon fill="none" stroke="black" points="1234,-268 971,-268 971,-232 1234,-232 1234,-268"/>
<text text-anchor="middle" x="1102.5" y="-243.8" font-family="Times,serif" font-size="24.00">SameFinger = False</text>
</g>
<!-- root_SameHand_true&#45;&gt;root_SameHand_true_SameFinger_false -->
<g id="edge16" class="edge">
<title>root_SameHand_true&#45;&gt;root_SameHand_true_SameFinger_false</title>
<path fill="none" stroke="black" stroke-width="1.5" d="M1102.5,-289.89C1102.5,-286.2 1102.5,-282.21 1102.5,-278.24"/>
<polygon fill="black" stroke="black" stroke-width="1.5" points="1106,-278 1102.5,-268 1099,-278 1106,-278"/>
</g>
<!-- root_SameHand_true_SameFinger_true_SameKey_true -->
<g id="node4" class="node">
<title>root_SameHand_true_SameFinger_true_SameKey_true</title>
<polygon fill="none" stroke="black" points="405,-210 184,-210 184,-174 405,-174 405,-210"/>
<text text-anchor="middle" x="294.5" y="-185.8" font-family="Times,serif" font-size="24.00">SameKey = True</text>
</g>
<!-- root_SameHand_true_SameFinger_true&#45;&gt;root_SameHand_true_SameFinger_true_SameKey_true -->
<g id="edge3" class="edge">
<title>root_SameHand_true_SameFinger_true&#45;&gt;root_SameHand_true_SameFinger_true_SameKey_true</title>
<path fill="none" stroke="black" stroke-width="1.5" d="M579.82,-231.97C527.47,-224.82 466.83,-216.54 414.95,-209.45"/>
<polygon fill="black" stroke="black" stroke-width="1.5" points="415.41,-205.98 405.03,-208.1 414.46,-212.92 415.41,-205.98"/>
</g>
<!-- root_SameHand_true_SameFinger_true_SameKey_false -->
<g id="node9" class="node">
<title>root_SameHand_true_SameFinger_true_SameKey_false</title>
<polygon fill="none" stroke="black" points="818,-210 591,-210 591,-174 818,-174 818,-210"/>
<text text-anchor="middle" x="704.5" y="-185.8" font-family="Times,serif" font-size="24.00">SameKey = False</text>
</g>
<!-- root_SameHand_true_SameFinger_true&#45;&gt;root_SameHand_true_SameFinger_true_SameKey_false -->
<g id="edge8" class="edge">
<title>root_SameHand_true_SameFinger_true&#45;&gt;root_SameHand_true_SameFinger_true_SameKey_false</title>
<path fill="none" stroke="black" stroke-width="1.5" d="M704.5,-231.89C704.5,-228.2 704.5,-224.21 704.5,-220.24"/>
<polygon fill="black" stroke="black" stroke-width="1.5" points="708,-220 704.5,-210 701,-220 708,-220"/>
</g>
<!-- root_SameHand_true_SameFinger_true_SameKey_true_Reach_true -->
<g id="node5" class="node">
<title>root_SameHand_true_SameFinger_true_SameKey_true_Reach_true</title>
<polygon fill="none" stroke="black" points="185,-152 0,-152 0,-116 185,-116 185,-152"/>
<text text-anchor="middle" x="92.5" y="-127.8" font-family="Times,serif" font-size="24.00">Reach = True</text>
</g>
<!-- root_SameHand_true_SameFinger_true_SameKey_true&#45;&gt;root_SameHand_true_SameFinger_true_SameKey_true_Reach_true -->
<g id="edge4" class="edge">
<title>root_SameHand_true_SameFinger_true_SameKey_true&#45;&gt;root_SameHand_true_SameFinger_true_SameKey_true_Reach_true</title>
<path fill="none" stroke="black" stroke-width="1.5" d="M233.07,-173.97C211.23,-167.92 186.46,-161.05 163.86,-154.78"/>
<polygon fill="black" stroke="black" stroke-width="1.5" points="164.56,-151.34 153.99,-152.05 162.69,-158.09 164.56,-151.34"/>
</g>
<!-- root_SameHand_true_SameFinger_true_SameKey_true_Reach_false -->
<g id="node7" class="node">
<title>root_SameHand_true_SameFinger_true_SameKey_true_Reach_false</title>
<polygon fill="none" stroke="black" points="390,-152 199,-152 199,-116 390,-116 390,-152"/>
<text text-anchor="middle" x="294.5" y="-127.8" font-family="Times,serif" font-size="24.00">Reach = False</text>
</g>
<!-- root_SameHand_true_SameFinger_true_SameKey_true&#45;&gt;root_SameHand_true_SameFinger_true_SameKey_true_Reach_false -->
<g id="edge6" class="edge">
<title>root_SameHand_true_SameFinger_true_SameKey_true&#45;&gt;root_SameHand_true_SameFinger_true_SameKey_true_Reach_false</title>
<path fill="none" stroke="black" stroke-width="1.5" d="M294.5,-173.89C294.5,-170.2 294.5,-166.21 294.5,-162.24"/>
<polygon fill="black" stroke="black" stroke-width="1.5" points="298,-162 294.5,-152 291,-162 298,-162"/>
</g>
<!-- root_SameHand_true_SameFinger_true_SameKey_true_Reach_true_leaf -->
<g id="node6" class="node">
<title>root_SameHand_true_SameFinger_true_SameKey_true_Reach_true_leaf</title>
<polygon fill="none" stroke="black" points="149.5,-94 35.5,-94 35.5,-58 149.5,-58 149.5,-94"/>
<text text-anchor="middle" x="92.5" y="-69.8" font-family="Times,serif" font-size="24.00">0.00233</text>
</g>
<!-- root_SameHand_true_SameFinger_true_SameKey_true_Reach_true&#45;&gt;root_SameHand_true_SameFinger_true_SameKey_true_Reach_true_leaf -->
<g id="edge5" class="edge">
<title>root_SameHand_true_SameFinger_true_SameKey_true_Reach_true&#45;&gt;root_SameHand_true_SameFinger_true_SameKey_true_Reach_true_leaf</title>
<path fill="none" stroke="black" stroke-width="1.5" d="M92.5,-115.89C92.5,-112.2 92.5,-108.21 92.5,-104.24"/>
<polygon fill="black" stroke="black" stroke-width="1.5" points="96,-104 92.5,-94 89,-104 96,-104"/>
</g>
<!-- root_SameHand_true_SameFinger_true_SameKey_true_Reach_false_leaf -->
<g id="node8" class="node">
<title>root_SameHand_true_SameFinger_true_SameKey_true_Reach_false_leaf</title>
<polygon fill="none" stroke="black" points="314.5,-94 200.5,-94 200.5,-58 314.5,-58 314.5,-94"/>
<text text-anchor="middle" x="257.5" y="-69.8" font-family="Times,serif" font-size="24.00">0.00219</text>
</g>
<!-- root_SameHand_true_SameFinger_true_SameKey_true_Reach_false&#45;&gt;root_SameHand_true_SameFinger_true_SameKey_true_Reach_false_leaf -->
<g id="edge7" class="edge">
<title>root_SameHand_true_SameFinger_true_SameKey_true_Reach_false&#45;&gt;root_SameHand_true_SameFinger_true_SameKey_true_Reach_false_leaf</title>
<path fill="none" stroke="black" stroke-width="1.5" d="M283.2,-115.89C280.4,-111.66 277.34,-107.03 274.34,-102.49"/>
<polygon fill="black" stroke="black" stroke-width="1.5" points="277.17,-100.42 268.73,-94 271.33,-104.27 277.17,-100.42"/>
</g>
<!-- root_SameHand_true_SameFinger_true_SameKey_false_Reach_true -->
<g id="node10" class="node">
<title>root_SameHand_true_SameFinger_true_SameKey_false_Reach_true</title>
<polygon fill="none" stroke="black" points="698,-152 513,-152 513,-116 698,-116 698,-152"/>
<text text-anchor="middle" x="605.5" y="-127.8" font-family="Times,serif" font-size="24.00">Reach = True</text>
</g>
<!-- root_SameHand_true_SameFinger_true_SameKey_false&#45;&gt;root_SameHand_true_SameFinger_true_SameKey_false_Reach_true -->
<g id="edge9" class="edge">
<title>root_SameHand_true_SameFinger_true_SameKey_false&#45;&gt;root_SameHand_true_SameFinger_true_SameKey_false_Reach_true</title>
<path fill="none" stroke="black" stroke-width="1.5" d="M674.26,-173.89C664.86,-168.57 654.35,-162.63 644.44,-157.03"/>
<polygon fill="black" stroke="black" stroke-width="1.5" points="645.98,-153.88 635.56,-152 642.54,-159.97 645.98,-153.88"/>
</g>
<!-- root_SameHand_true_SameFinger_true_SameKey_false_Reach_false -->
<g id="node15" class="node">
<title>root_SameHand_true_SameFinger_true_SameKey_false_Reach_false</title>
<polygon fill="none" stroke="black" points="903,-152 712,-152 712,-116 903,-116 903,-152"/>
<text text-anchor="middle" x="807.5" y="-127.8" font-family="Times,serif" font-size="24.00">Reach = False</text>
</g>
<!-- root_SameHand_true_SameFinger_true_SameKey_false&#45;&gt;root_SameHand_true_SameFinger_true_SameKey_false_Reach_false -->
<g id="edge14" class="edge">
<title>root_SameHand_true_SameFinger_true_SameKey_false&#45;&gt;root_SameHand_true_SameFinger_true_SameKey_false_Reach_false</title>
<path fill="none" stroke="black" stroke-width="1.5" d="M735.96,-173.89C745.85,-168.52 756.9,-162.51 767.3,-156.86"/>
<polygon fill="black" stroke="black" stroke-width="1.5" points="769.12,-159.85 776.23,-152 765.77,-153.7 769.12,-159.85"/>
</g>
<!-- root_SameHand_true_SameFinger_true_SameKey_false_Reach_true_Hurdle_true -->
<g id="node11" class="node">
<title>root_SameHand_true_SameFinger_true_SameKey_false_Reach_true_Hurdle_true</title>
<polygon fill="none" stroke="black" points="522.5,-94 328.5,-94 328.5,-58 522.5,-58 522.5,-94"/>
<text text-anchor="middle" x="425.5" y="-69.8" font-family="Times,serif" font-size="24.00">Hurdle = True</text>
</g>
<!-- root_SameHand_true_SameFinger_true_SameKey_false_Reach_true&#45;&gt;root_SameHand_true_SameFinger_true_SameKey_false_Reach_true_Hurdle_true -->
<g id="edge10" class="edge">
<title>root_SameHand_true_SameFinger_true_SameKey_false_Reach_true&#45;&gt;root_SameHand_true_SameFinger_true_SameKey_false_Reach_true_Hurdle_true</title>
<path fill="none" stroke="black" stroke-width="1.5" d="M550.52,-115.89C531.32,-109.92 509.62,-103.17 489.74,-96.99"/>
<polygon fill="black" stroke="black" stroke-width="1.5" points="490.74,-93.63 480.15,-94 488.66,-100.31 490.74,-93.63"/>
</g>
<!-- root_SameHand_true_SameFinger_true_SameKey_false_Reach_true_Hurdle_false -->
<g id="node13" class="node">
<title>root_SameHand_true_SameFinger_true_SameKey_false_Reach_true_Hurdle_false</title>
<polygon fill="none" stroke="black" points="736.5,-94 536.5,-94 536.5,-58 736.5,-58 736.5,-94"/>
<text text-anchor="middle" x="636.5" y="-69.8" font-family="Times,serif" font-size="24.00">Hurdle = False</text>
</g>
<!-- root_SameHand_true_SameFinger_true_SameKey_false_Reach_true&#45;&gt;root_SameHand_true_SameFinger_true_SameKey_false_Reach_true_Hurdle_false -->
<g id="edge12" class="edge">
<title>root_SameHand_true_SameFinger_true_SameKey_false_Reach_true&#45;&gt;root_SameHand_true_SameFinger_true_SameKey_false_Reach_true_Hurdle_false</title>
<path fill="none" stroke="black" stroke-width="1.5" d="M614.97,-115.89C617.25,-111.77 619.74,-107.27 622.19,-102.84"/>
<polygon fill="black" stroke="black" stroke-width="1.5" points="625.31,-104.45 627.09,-94 619.18,-101.06 625.31,-104.45"/>
</g>
<!-- root_SameHand_true_SameFinger_true_SameKey_false_Reach_true_Hurdle_true_leaf -->
<g id="node12" class="node">
<title>root_SameHand_true_SameFinger_true_SameKey_false_Reach_true_Hurdle_true_leaf</title>
<polygon fill="none" stroke="black" points="475,-36 376,-36 376,0 475,0 475,-36"/>
<text text-anchor="middle" x="425.5" y="-11.8" font-family="Times,serif" font-size="24.00">0.0072</text>
</g>
<!-- root_SameHand_true_SameFinger_true_SameKey_false_Reach_true_Hurdle_true&#45;&gt;root_SameHand_true_SameFinger_true_SameKey_false_Reach_true_Hurdle_true_leaf -->
<g id="edge11" class="edge">
<title>root_SameHand_true_SameFinger_true_SameKey_false_Reach_true_Hurdle_true&#45;&gt;root_SameHand_true_SameFinger_true_SameKey_false_Reach_true_Hurdle_true_leaf</title>
<path fill="none" stroke="black" stroke-width="1.5" d="M425.5,-57.89C425.5,-54.2 425.5,-50.21 425.5,-46.24"/>
<polygon fill="black" stroke="black" stroke-width="1.5" points="429,-46 425.5,-36 422,-46 429,-46"/>
</g>
<!-- root_SameHand_true_SameFinger_true_SameKey_false_Reach_true_Hurdle_false_leaf -->
<g id="node14" class="node">
<title>root_SameHand_true_SameFinger_true_SameKey_false_Reach_true_Hurdle_false_leaf</title>
<polygon fill="none" stroke="black" points="686,-36 587,-36 587,0 686,0 686,-36"/>
<text text-anchor="middle" x="636.5" y="-11.8" font-family="Times,serif" font-size="24.00">0.0148</text>
</g>
<!-- root_SameHand_true_SameFinger_true_SameKey_false_Reach_true_Hurdle_false&#45;&gt;root_SameHand_true_SameFinger_true_SameKey_false_Reach_true_Hurdle_false_leaf -->
<g id="edge13" class="edge">
<title>root_SameHand_true_SameFinger_true_SameKey_false_Reach_true_Hurdle_false&#45;&gt;root_SameHand_true_SameFinger_true_SameKey_false_Reach_true_Hurdle_false_leaf</title>
<path fill="none" stroke="black" stroke-width="1.5" d="M636.5,-57.89C636.5,-54.2 636.5,-50.21 636.5,-46.24"/>
<polygon fill="black" stroke="black" stroke-width="1.5" points="640,-46 636.5,-36 633,-46 640,-46"/>
</g>
<!-- root_SameHand_true_SameFinger_true_SameKey_false_Reach_false_leaf -->
<g id="node16" class="node">
<title>root_SameHand_true_SameFinger_true_SameKey_false_Reach_false_leaf</title>
<polygon fill="none" stroke="black" points="864.5,-94 750.5,-94 750.5,-58 864.5,-58 864.5,-94"/>
<text text-anchor="middle" x="807.5" y="-69.8" font-family="Times,serif" font-size="24.00">0.00923</text>
</g>
<!-- root_SameHand_true_SameFinger_true_SameKey_false_Reach_false&#45;&gt;root_SameHand_true_SameFinger_true_SameKey_false_Reach_false_leaf -->
<g id="edge15" class="edge">
<title>root_SameHand_true_SameFinger_true_SameKey_false_Reach_false&#45;&gt;root_SameHand_true_SameFinger_true_SameKey_false_Reach_false_leaf</title>
<path fill="none" stroke="black" stroke-width="1.5" d="M807.5,-115.89C807.5,-112.2 807.5,-108.21 807.5,-104.24"/>
<polygon fill="black" stroke="black" stroke-width="1.5" points="811,-104 807.5,-94 804,-104 811,-104"/>
</g>
<!-- root_SameHand_true_SameFinger_false_SameKey_false -->
<g id="node18" class="node">
<title>root_SameHand_true_SameFinger_false_SameKey_false</title>
<polygon fill="none" stroke="black" points="1216,-210 989,-210 989,-174 1216,-174 1216,-210"/>
<text text-anchor="middle" x="1102.5" y="-185.8" font-family="Times,serif" font-size="24.00">SameKey = False</text>
</g>
<!-- root_SameHand_true_SameFinger_false&#45;&gt;root_SameHand_true_SameFinger_false_SameKey_false -->
<g id="edge17" class="edge">
<title>root_SameHand_true_SameFinger_false&#45;&gt;root_SameHand_true_SameFinger_false_SameKey_false</title>
<path fill="none" stroke="black" stroke-width="1.5" d="M1102.5,-231.89C1102.5,-228.2 1102.5,-224.21 1102.5,-220.24"/>
<polygon fill="black" stroke="black" stroke-width="1.5" points="1106,-220 1102.5,-210 1099,-220 1106,-220"/>
</g>
<!-- root_SameHand_true_SameFinger_false_SameKey_false_Reach_true -->
<g id="node19" class="node">
<title>root_SameHand_true_SameFinger_false_SameKey_false_Reach_true</title>
<polygon fill="none" stroke="black" points="1171,-152 986,-152 986,-116 1171,-116 1171,-152"/>
<text text-anchor="middle" x="1078.5" y="-127.8" font-family="Times,serif" font-size="24.00">Reach = True</text>
</g>
<!-- root_SameHand_true_SameFinger_false_SameKey_false&#45;&gt;root_SameHand_true_SameFinger_false_SameKey_false_Reach_true -->
<g id="edge18" class="edge">
<title>root_SameHand_true_SameFinger_false_SameKey_false&#45;&gt;root_SameHand_true_SameFinger_false_SameKey_false_Reach_true</title>
<path fill="none" stroke="black" stroke-width="1.5" d="M1095.17,-173.89C1093.49,-169.99 1091.68,-165.74 1089.88,-161.54"/>
<polygon fill="black" stroke="black" stroke-width="1.5" points="1092.94,-159.81 1085.79,-152 1086.51,-162.57 1092.94,-159.81"/>
</g>
<!-- root_SameHand_true_SameFinger_false_SameKey_false_Reach_false -->
<g id="node24" class="node">
<title>root_SameHand_true_SameFinger_false_SameKey_false_Reach_false</title>
<polygon fill="none" stroke="black" points="1376,-152 1185,-152 1185,-116 1376,-116 1376,-152"/>
<text text-anchor="middle" x="1280.5" y="-127.8" font-family="Times,serif" font-size="24.00">Reach = False</text>
</g>
<!-- root_SameHand_true_SameFinger_false_SameKey_false&#45;&gt;root_SameHand_true_SameFinger_false_SameKey_false_Reach_false -->
<g id="edge23" class="edge">
<title>root_SameHand_true_SameFinger_false_SameKey_false&#45;&gt;root_SameHand_true_SameFinger_false_SameKey_false_Reach_false</title>
<path fill="none" stroke="black" stroke-width="1.5" d="M1156.87,-173.89C1175.76,-167.95 1197.12,-161.23 1216.71,-155.07"/>
<polygon fill="black" stroke="black" stroke-width="1.5" points="1217.97,-158.34 1226.46,-152 1215.87,-151.66 1217.97,-158.34"/>
</g>
<!-- root_SameHand_true_SameFinger_false_SameKey_false_Reach_true_Hurdle_true -->
<g id="node20" class="node">
<title>root_SameHand_true_SameFinger_false_SameKey_false_Reach_true_Hurdle_true</title>
<polygon fill="none" stroke="black" points="1072.5,-94 878.5,-94 878.5,-58 1072.5,-58 1072.5,-94"/>
<text text-anchor="middle" x="975.5" y="-69.8" font-family="Times,serif" font-size="24.00">Hurdle = True</text>
</g>
<!-- root_SameHand_true_SameFinger_false_SameKey_false_Reach_true&#45;&gt;root_SameHand_true_SameFinger_false_SameKey_false_Reach_true_Hurdle_true -->
<g id="edge19" class="edge">
<title>root_SameHand_true_SameFinger_false_SameKey_false_Reach_true&#45;&gt;root_SameHand_true_SameFinger_false_SameKey_false_Reach_true_Hurdle_true</title>
<path fill="none" stroke="black" stroke-width="1.5" d="M1047.04,-115.89C1037.15,-110.52 1026.1,-104.51 1015.7,-98.86"/>
<polygon fill="black" stroke="black" stroke-width="1.5" points="1017.23,-95.7 1006.77,-94 1013.88,-101.85 1017.23,-95.7"/>
</g>
<!-- root_SameHand_true_SameFinger_false_SameKey_false_Reach_true_Hurdle_false -->
<g id="node22" class="node">
<title>root_SameHand_true_SameFinger_false_SameKey_false_Reach_true_Hurdle_false</title>
<polygon fill="none" stroke="black" points="1286.5,-94 1086.5,-94 1086.5,-58 1286.5,-58 1286.5,-94"/>
<text text-anchor="middle" x="1186.5" y="-69.8" font-family="Times,serif" font-size="24.00">Hurdle = False</text>
</g>
<!-- root_SameHand_true_SameFinger_false_SameKey_false_Reach_true&#45;&gt;root_SameHand_true_SameFinger_false_SameKey_false_Reach_true_Hurdle_false -->
<g id="edge21" class="edge">
<title>root_SameHand_true_SameFinger_false_SameKey_false_Reach_true&#45;&gt;root_SameHand_true_SameFinger_false_SameKey_false_Reach_true_Hurdle_false</title>
<path fill="none" stroke="black" stroke-width="1.5" d="M1111.49,-115.89C1121.96,-110.47 1133.67,-104.39 1144.68,-98.69"/>
<polygon fill="black" stroke="black" stroke-width="1.5" points="1146.45,-101.71 1153.71,-94 1143.22,-95.5 1146.45,-101.71"/>
</g>
<!-- root_SameHand_true_SameFinger_false_SameKey_false_Reach_true_Hurdle_true_leaf -->
<g id="node21" class="node">
<title>root_SameHand_true_SameFinger_false_SameKey_false_Reach_true_Hurdle_true_leaf</title>
<polygon fill="none" stroke="black" points="1025,-36 926,-36 926,0 1025,0 1025,-36"/>
<text text-anchor="middle" x="975.5" y="-11.8" font-family="Times,serif" font-size="24.00">0.0252</text>
</g>
<!-- root_SameHand_true_SameFinger_false_SameKey_false_Reach_true_Hurdle_true&#45;&gt;root_SameHand_true_SameFinger_false_SameKey_false_Reach_true_Hurdle_true_leaf -->
<g id="edge20" class="edge">
<title>root_SameHand_true_SameFinger_false_SameKey_false_Reach_true_Hurdle_true&#45;&gt;root_SameHand_true_SameFinger_false_SameKey_false_Reach_true_Hurdle_true_leaf</title>
<path fill="none" stroke="black" stroke-width="1.5" d="M975.5,-57.89C975.5,-54.2 975.5,-50.21 975.5,-46.24"/>
<polygon fill="black" stroke="black" stroke-width="1.5" points="979,-46 975.5,-36 972,-46 979,-46"/>
</g>
<!-- root_SameHand_true_SameFinger_false_SameKey_false_Reach_true_Hurdle_false_leaf -->
<g id="node23" class="node">
<title>root_SameHand_true_SameFinger_false_SameKey_false_Reach_true_Hurdle_false_leaf</title>
<polygon fill="none" stroke="black" points="1236,-36 1137,-36 1137,0 1236,0 1236,-36"/>
<text text-anchor="middle" x="1186.5" y="-11.8" font-family="Times,serif" font-size="24.00">0.0512</text>
</g>
<!-- root_SameHand_true_SameFinger_false_SameKey_false_Reach_true_Hurdle_false&#45;&gt;root_SameHand_true_SameFinger_false_SameKey_false_Reach_true_Hurdle_false_leaf -->
<g id="edge22" class="edge">
<title>root_SameHand_true_SameFinger_false_SameKey_false_Reach_true_Hurdle_false&#45;&gt;root_SameHand_true_SameFinger_false_SameKey_false_Reach_true_Hurdle_false_leaf</title>
<path fill="none" stroke="black" stroke-width="1.5" d="M1186.5,-57.89C1186.5,-54.2 1186.5,-50.21 1186.5,-46.24"/>
<polygon fill="black" stroke="black" stroke-width="1.5" points="1190,-46 1186.5,-36 1183,-46 1190,-46"/>
</g>
<!-- root_SameHand_true_SameFinger_false_SameKey_false_Reach_false_leaf -->
<g id="node25" class="node">
<title>root_SameHand_true_SameFinger_false_SameKey_false_Reach_false_leaf</title>
<polygon fill="none" stroke="black" points="1400,-94 1301,-94 1301,-58 1400,-58 1400,-94"/>
<text text-anchor="middle" x="1350.5" y="-69.8" font-family="Times,serif" font-size="24.00">0.0402</text>
</g>
<!-- root_SameHand_true_SameFinger_false_SameKey_false_Reach_false&#45;&gt;root_SameHand_true_SameFinger_false_SameKey_false_Reach_false_leaf -->
<g id="edge24" class="edge">
<title>root_SameHand_true_SameFinger_false_SameKey_false_Reach_false&#45;&gt;root_SameHand_true_SameFinger_false_SameKey_false_Reach_false_leaf</title>
<path fill="none" stroke="black" stroke-width="1.5" d="M1301.88,-115.89C1307.99,-111.01 1314.75,-105.6 1321.24,-100.41"/>
<polygon fill="black" stroke="black" stroke-width="1.5" points="1323.63,-102.98 1329.25,-94 1319.25,-97.52 1323.63,-102.98"/>
</g>
<!-- root_SameHand_false_Reach_true -->
<g id="node27" class="node">
<title>root_SameHand_false_Reach_true</title>
<polygon fill="none" stroke="black" points="1482,-268 1297,-268 1297,-232 1482,-232 1482,-268"/>
<text text-anchor="middle" x="1389.5" y="-243.8" font-family="Times,serif" font-size="24.00">Reach = True</text>
</g>
<!-- root_SameHand_false&#45;&gt;root_SameHand_false_Reach_true -->
<g id="edge26" class="edge">
<title>root_SameHand_false&#45;&gt;root_SameHand_false_Reach_true</title>
<path fill="none" stroke="black" stroke-width="1.5" d="M1389.5,-289.89C1389.5,-286.2 1389.5,-282.21 1389.5,-278.24"/>
<polygon fill="black" stroke="black" stroke-width="1.5" points="1393,-278 1389.5,-268 1386,-278 1393,-278"/>
</g>
<!-- root_SameHand_false_Reach_false -->
<g id="node30" class="node">
<title>root_SameHand_false_Reach_false</title>
<polygon fill="none" stroke="black" points="1687,-268 1496,-268 1496,-232 1687,-232 1687,-268"/>
<text text-anchor="middle" x="1591.5" y="-243.8" font-family="Times,serif" font-size="24.00">Reach = False</text>
</g>
<!-- root_SameHand_false&#45;&gt;root_SameHand_false_Reach_false -->
<g id="edge29" class="edge">
<title>root_SameHand_false&#45;&gt;root_SameHand_false_Reach_false</title>
<path fill="none" stroke="black" stroke-width="1.5" d="M1450.93,-289.97C1472.77,-283.92 1497.54,-277.05 1520.14,-270.78"/>
<polygon fill="black" stroke="black" stroke-width="1.5" points="1521.31,-274.09 1530.01,-268.05 1519.44,-267.34 1521.31,-274.09"/>
</g>
<!-- root_SameHand_false_Reach_true_Hurdle_false -->
<g id="node28" class="node">
<title>root_SameHand_false_Reach_true_Hurdle_false</title>
<polygon fill="none" stroke="black" points="1508.5,-210 1308.5,-210 1308.5,-174 1508.5,-174 1508.5,-210"/>
<text text-anchor="middle" x="1408.5" y="-185.8" font-family="Times,serif" font-size="24.00">Hurdle = False</text>
</g>
<!-- root_SameHand_false_Reach_true&#45;&gt;root_SameHand_false_Reach_true_Hurdle_false -->
<g id="edge27" class="edge">
<title>root_SameHand_false_Reach_true&#45;&gt;root_SameHand_false_Reach_true_Hurdle_false</title>
<path fill="none" stroke="black" stroke-width="1.5" d="M1395.3,-231.89C1396.63,-227.99 1398.07,-223.74 1399.49,-219.54"/>
<polygon fill="black" stroke="black" stroke-width="1.5" points="1402.83,-220.6 1402.73,-210 1396.2,-218.35 1402.83,-220.6"/>
</g>
<!-- root_SameHand_false_Reach_true_Hurdle_false_leaf -->
<g id="node29" class="node">
<title>root_SameHand_false_Reach_true_Hurdle_false_leaf</title>
<polygon fill="none" stroke="black" points="1474.5,-152 1390.5,-152 1390.5,-116 1474.5,-116 1474.5,-152"/>
<text text-anchor="middle" x="1432.5" y="-127.8" font-family="Times,serif" font-size="24.00">0.095</text>
</g>
<!-- root_SameHand_false_Reach_true_Hurdle_false&#45;&gt;root_SameHand_false_Reach_true_Hurdle_false_leaf -->
<g id="edge28" class="edge">
<title>root_SameHand_false_Reach_true_Hurdle_false&#45;&gt;root_SameHand_false_Reach_true_Hurdle_false_leaf</title>
<path fill="none" stroke="black" stroke-width="1.5" d="M1415.83,-173.89C1417.51,-169.99 1419.32,-165.74 1421.12,-161.54"/>
<polygon fill="black" stroke="black" stroke-width="1.5" points="1424.49,-162.57 1425.21,-152 1418.06,-159.81 1424.49,-162.57"/>
</g>
<!-- root_SameHand_false_Reach_false_leaf -->
<g id="node31" class="node">
<title>root_SameHand_false_Reach_false_leaf</title>
<polygon fill="none" stroke="black" points="1641,-210 1542,-210 1542,-174 1641,-174 1641,-210"/>
<text text-anchor="middle" x="1591.5" y="-185.8" font-family="Times,serif" font-size="24.00">0.0613</text>
</g>
<!-- root_SameHand_false_Reach_false&#45;&gt;root_SameHand_false_Reach_false_leaf -->
<g id="edge30" class="edge">
<title>root_SameHand_false_Reach_false&#45;&gt;root_SameHand_false_Reach_false_leaf</title>
<path fill="none" stroke="black" stroke-width="1.5" d="M1591.5,-231.89C1591.5,-228.2 1591.5,-224.21 1591.5,-220.24"/>
<polygon fill="black" stroke="black" stroke-width="1.5" points="1595,-220 1591.5,-210 1588,-220 1595,-220"/>
</g>
</g>
</svg>
