<?xml version="1.0" encoding="UTF-8" standalone="no"?>
<!DOCTYPE svg PUBLIC "-//W3C//DTD SVG 1.1//EN"
 "http://www.w3.org/Graphics/SVG/1.1/DTD/svg11.dtd">
<!-- Generated by graphviz version 2.43.0 (0)
 -->
<!-- Title: %3 Pages: 1 -->
<svg width="1800pt" height="434pt"
 viewBox="0.00 0.00 432.00 104.28" xmlns="http://www.w3.org/2000/svg" xmlns:xlink="http://www.w3.org/1999/xlink">
<g id="graph0" class="graph" transform="scale(1.08 1.08) rotate(0) translate(4 400.08)">
<title>%3</title>
<polygon fill="white" stroke="transparent" points="-4,4 -4,-400.08 1670,-400.08 1670,4 -4,4"/>
<!-- root -->
<g id="node1" class="node">
<title>root</title>
<ellipse fill="none" stroke="black" cx="1210.5" cy="-372.04" rx="55.31" ry="24.08"/>
<text text-anchor="middle" x="1210.5" y="-365.84" font-family="Times,serif" font-size="24.00">Start</text>
</g>
<!-- root_SameHand_true -->
<g id="node2" class="node">
<title>root_SameHand_true</title>
<polygon fill="none" stroke="black" points="1202.5,-326 960.5,-326 960.5,-290 1202.5,-290 1202.5,-326"/>
<text text-anchor="middle" x="1081.5" y="-301.8" font-family="Times,serif" font-size="24.00">SameHand = True</text>
</g>
<!-- root&#45;&gt;root_SameHand_true -->
<g id="edge1" class="edge">
<title>root&#45;&gt;root_SameHand_true</title>
<path fill="none" stroke="black" stroke-width="1.5" d="M1174.57,-353.76C1159.61,-346.57 1142.08,-338.14 1126.3,-330.55"/>
<polygon fill="black" stroke="black" stroke-width="1.5" points="1127.77,-327.37 1117.24,-326.19 1124.74,-333.68 1127.77,-327.37"/>
</g>
<!-- root_SameHand_false -->
<g id="node26" class="node">
<title>root_SameHand_false</title>
<polygon fill="none" stroke="black" points="1492.5,-326 1244.5,-326 1244.5,-290 1492.5,-290 1492.5,-326"/>
<text text-anchor="middle" x="1368.5" y="-301.8" font-family="Times,serif" font-size="24.00">SameHand = False</text>
</g>
<!-- root&#45;&gt;root_SameHand_false -->
<g id="edge25" class="edge">
<title>root&#45;&gt;root_SameHand_false</title>
<path fill="none" stroke="black" stroke-width="1.5" d="M1250.37,-355.39C1270.11,-347.63 1294.21,-338.17 1315.48,-329.82"/>
<polygon fill="black" stroke="black" stroke-width="1.5" points="1317,-332.98 1325.03,-326.07 1314.44,-326.47 1317,-332.98"/>
</g>
<!-- root_SameHand_true_SameFinger_true -->
<g id="node3" class="node">
<title>root_SameHand_true_SameFinger_true</title>
<polygon fill="none" stroke="black" points="817,-268 560,-268 560,-232 817,-232 817,-268"/>
<text text-anchor="middle" x="688.5" y="-243.8" font-family="Times,serif" font-size="24.00">SameFinger = True</text>
</g>
<!-- root_SameHand_true&#45;&gt;root_SameHand_true_SameFinger_true -->
<g id="edge2" class="edge">
<title>root_SameHand_true&#45;&gt;root_SameHand_true_SameFinger_true</title>
<path fill="none" stroke="black" stroke-width="1.5" d="M961.99,-289.97C916.54,-283.49 864.57,-276.09 818.23,-269.49"/>
<polygon fill="black" stroke="black" stroke-width="1.5" points="818.52,-265.99 808.12,-268.05 817.53,-272.92 818.52,-265.99"/>
</g>
<!-- root_SameHand_true_SameFinger_false -->
<g id="node17" class="node">
<title>root_SameHand_true_SameFinger_false</title>
<polygon fill="none" stroke="black" points="1213,-268 950,-268 950,-232 1213,-232 1213,-268"/>
<text text-anchor="middle" x="1081.5" y="-243.8" font-family="Times,serif" font-size="24.00">SameFinger = False</text>
</g>
<!-- root_SameHand_true&#45;&gt;root_SameHand_true_SameFinger_false -->
<g id="edge16" class="edge">
<title>root_SameHand_true&#45;&gt;root_SameHand_true_SameFinger_false</title>
<path fill="none" stroke="black" stroke-width="1.5" d="M1081.5,-289.89C1081.5,-286.2 1081.5,-282.21 1081.5,-278.24"/>
<polygon fill="black" stroke="black" stroke-width="1.5" points="1085,-278 1081.5,-268 1078,-278 1085,-278"/>
</g>
<!-- root_SameHand_true_SameFinger_true_SameKey_true -->
<g id="node4" class="node">
<title>root_SameHand_true_SameFinger_true_SameKey_true</title>
<polygon fill="none" stroke="black" points="405,-210 184,-210 184,-174 405,-174 405,-210"/>
<text text-anchor="middle" x="294.5" y="-185.8" font-family="Times,serif" font-size="24.00">SameKey = True</text>
</g>
<!-- root_SameHand_true_SameFinger_true&#45;&gt;root_SameHand_true_SameFinger_true_SameKey_true -->
<g id="edge3" class="edge">
<title>root_SameHand_true_SameFinger_true&#45;&gt;root_SameHand_true_SameFinger_true_SameKey_true</title>
<path fill="none" stroke="black" stroke-width="1.5" d="M568.68,-231.97C519.97,-225.05 463.77,-217.06 414.99,-210.13"/>
<polygon fill="black" stroke="black" stroke-width="1.5" points="415.41,-206.65 405.01,-208.71 414.42,-213.58 415.41,-206.65"/>
</g>
<!-- root_SameHand_true_SameFinger_true_SameKey_false -->
<g id="node9" class="node">
<title>root_SameHand_true_SameFinger_true_SameKey_false</title>
<polygon fill="none" stroke="black" points="802,-210 575,-210 575,-174 802,-174 802,-210"/>
<text text-anchor="middle" x="688.5" y="-185.8" font-family="Times,serif" font-size="24.00">SameKey = False</text>
</g>
<!-- root_SameHand_true_SameFinger_true&#45;&gt;root_SameHand_true_SameFinger_true_SameKey_false -->
<g id="edge8" class="edge">
<title>root_SameHand_true_SameFinger_true&#45;&gt;root_SameHand_true_SameFinger_true_SameKey_false</title>
<path fill="none" stroke="black" stroke-width="1.5" d="M688.5,-231.89C688.5,-228.2 688.5,-224.21 688.5,-220.24"/>
<polygon fill="black" stroke="black" stroke-width="1.5" points="692,-220 688.5,-210 685,-220 692,-220"/>
</g>
<!-- root_SameHand_true_SameFinger_true_SameKey_true_Reach_true -->
<g id="node5" class="node">
<title>root_SameHand_true_SameFinger_true_SameKey_true_Reach_true</title>
<polygon fill="none" stroke="black" points="185,-152 0,-152 0,-116 185,-116 185,-152"/>
<text text-anchor="middle" x="92.5" y="-127.8" font-family="Times,serif" font-size="24.00">Reach = True</text>
</g>
<!-- root_SameHand_true_SameFinger_true_SameKey_true&#45;&gt;root_SameHand_true_SameFinger_true_SameKey_true_Reach_true -->
<g id="edge4" class="edge">
<title>root_SameHand_true_SameFinger_true_SameKey_true&#45;&gt;root_SameHand_true_SameFinger_true_SameKey_true_Reach_true</title>
<path fill="none" stroke="black" stroke-width="1.5" d="M233.07,-173.97C211.23,-167.92 186.46,-161.05 163.86,-154.78"/>
<polygon fill="black" stroke="black" stroke-width="1.5" points="164.56,-151.34 153.99,-152.05 162.69,-158.09 164.56,-151.34"/>
</g>
<!-- root_SameHand_true_SameFinger_true_SameKey_true_Reach_false -->
<g id="node7" class="node">
<title>root_SameHand_true_SameFinger_true_SameKey_true_Reach_false</title>
<polygon fill="none" stroke="black" points="390,-152 199,-152 199,-116 390,-116 390,-152"/>
<text text-anchor="middle" x="294.5" y="-127.8" font-family="Times,serif" font-size="24.00">Reach = False</text>
</g>
<!-- root_SameHand_true_SameFinger_true_SameKey_true&#45;&gt;root_SameHand_true_SameFinger_true_SameKey_true_Reach_false -->
<g id="edge6" class="edge">
<title>root_SameHand_true_SameFinger_true_SameKey_true&#45;&gt;root_SameHand_true_SameFinger_true_SameKey_true_Reach_false</title>
<path fill="none" stroke="black" stroke-width="1.5" d="M294.5,-173.89C294.5,-170.2 294.5,-166.21 294.5,-162.24"/>
<polygon fill="black" stroke="black" stroke-width="1.5" points="298,-162 294.5,-152 291,-162 298,-162"/>
</g>
<!-- root_SameHand_true_SameFinger_true_SameKey_true_Reach_true_leaf -->
<g id="node6" class="node">
<title>root_SameHand_true_SameFinger_true_SameKey_true_Reach_true_leaf</title>
<polygon fill="none" stroke="black" points="149.5,-94 35.5,-94 35.5,-58 149.5,-58 149.5,-94"/>
<text text-anchor="middle" x="92.5" y="-69.8" font-family="Times,serif" font-size="24.00">0.00799</text>
</g>
<!-- root_SameHand_true_SameFinger_true_SameKey_true_Reach_true&#45;&gt;root_SameHand_true_SameFinger_true_SameKey_true_Reach_true_leaf -->
<g id="edge5" class="edge">
<title>root_SameHand_true_SameFinger_true_SameKey_true_Reach_true&#45;&gt;root_SameHand_true_SameFinger_true_SameKey_true_Reach_true_leaf</title>
<path fill="none" stroke="black" stroke-width="1.5" d="M92.5,-115.89C92.5,-112.2 92.5,-108.21 92.5,-104.24"/>
<polygon fill="black" stroke="black" stroke-width="1.5" points="96,-104 92.5,-94 89,-104 96,-104"/>
</g>
<!-- root_SameHand_true_SameFinger_true_SameKey_true_Reach_false_leaf -->
<g id="node8" class="node">
<title>root_SameHand_true_SameFinger_true_SameKey_true_Reach_false_leaf</title>
<polygon fill="none" stroke="black" points="303,-94 204,-94 204,-58 303,-58 303,-94"/>
<text text-anchor="middle" x="253.5" y="-69.8" font-family="Times,serif" font-size="24.00">0.0126</text>
</g>
<!-- root_SameHand_true_SameFinger_true_SameKey_true_Reach_false&#45;&gt;root_SameHand_true_SameFinger_true_SameKey_true_Reach_false_leaf -->
<g id="edge7" class="edge">
<title>root_SameHand_true_SameFinger_true_SameKey_true_Reach_false&#45;&gt;root_SameHand_true_SameFinger_true_SameKey_true_Reach_false_leaf</title>
<path fill="none" stroke="black" stroke-width="1.5" d="M281.98,-115.89C278.8,-111.55 275.31,-106.8 271.91,-102.14"/>
<polygon fill="black" stroke="black" stroke-width="1.5" points="274.68,-100 265.95,-94 269.03,-104.14 274.68,-100"/>
</g>
<!-- root_SameHand_true_SameFinger_true_SameKey_false_Reach_true -->
<g id="node10" class="node">
<title>root_SameHand_true_SameFinger_true_SameKey_false_Reach_true</title>
<polygon fill="none" stroke="black" points="680,-152 495,-152 495,-116 680,-116 680,-152"/>
<text text-anchor="middle" x="587.5" y="-127.8" font-family="Times,serif" font-size="24.00">Reach = True</text>
</g>
<!-- root_SameHand_true_SameFinger_true_SameKey_false&#45;&gt;root_SameHand_true_SameFinger_true_SameKey_false_Reach_true -->
<g id="edge9" class="edge">
<title>root_SameHand_true_SameFinger_true_SameKey_false&#45;&gt;root_SameHand_true_SameFinger_true_SameKey_false_Reach_true</title>
<path fill="none" stroke="black" stroke-width="1.5" d="M657.65,-173.89C647.96,-168.52 637.12,-162.51 626.92,-156.86"/>
<polygon fill="black" stroke="black" stroke-width="1.5" points="628.61,-153.79 618.16,-152 625.21,-159.91 628.61,-153.79"/>
</g>
<!-- root_SameHand_true_SameFinger_true_SameKey_false_Reach_false -->
<g id="node15" class="node">
<title>root_SameHand_true_SameFinger_true_SameKey_false_Reach_false</title>
<polygon fill="none" stroke="black" points="885,-152 694,-152 694,-116 885,-116 885,-152"/>
<text text-anchor="middle" x="789.5" y="-127.8" font-family="Times,serif" font-size="24.00">Reach = False</text>
</g>
<!-- root_SameHand_true_SameFinger_true_SameKey_false&#45;&gt;root_SameHand_true_SameFinger_true_SameKey_false_Reach_false -->
<g id="edge14" class="edge">
<title>root_SameHand_true_SameFinger_true_SameKey_false&#45;&gt;root_SameHand_true_SameFinger_true_SameKey_false_Reach_false</title>
<path fill="none" stroke="black" stroke-width="1.5" d="M719.35,-173.89C729.04,-168.52 739.88,-162.51 750.08,-156.86"/>
<polygon fill="black" stroke="black" stroke-width="1.5" points="751.79,-159.91 758.84,-152 748.39,-153.79 751.79,-159.91"/>
</g>
<!-- root_SameHand_true_SameFinger_true_SameKey_false_Reach_true_Hurdle_true -->
<g id="node11" class="node">
<title>root_SameHand_true_SameFinger_true_SameKey_false_Reach_true_Hurdle_true</title>
<polygon fill="none" stroke="black" points="511.5,-94 317.5,-94 317.5,-58 511.5,-58 511.5,-94"/>
<text text-anchor="middle" x="414.5" y="-69.8" font-family="Times,serif" font-size="24.00">Hurdle = True</text>
</g>
<!-- root_SameHand_true_SameFinger_true_SameKey_false_Reach_true&#45;&gt;root_SameHand_true_SameFinger_true_SameKey_false_Reach_true_Hurdle_true -->
<g id="edge10" class="edge">
<title>root_SameHand_true_SameFinger_true_SameKey_false_Reach_true&#45;&gt;root_SameHand_true_SameFinger_true_SameKey_false_Reach_true_Hurdle_true</title>
<path fill="none" stroke="black" stroke-width="1.5" d="M534.65,-115.89C516.38,-109.98 495.72,-103.29 476.76,-97.15"/>
<polygon fill="black" stroke="black" stroke-width="1.5" points="477.61,-93.75 467.02,-94 475.46,-100.41 477.61,-93.75"/>
</g>
<!-- root_SameHand_true_SameFinger_true_SameKey_false_Reach_true_Hurdle_false -->
<g id="node13" class="node">
<title>root_SameHand_true_SameFinger_true_SameKey_false_Reach_true_Hurdle_false</title>
<polygon fill="none" stroke="black" points="725.5,-94 525.5,-94 525.5,-58 725.5,-58 725.5,-94"/>
<text text-anchor="middle" x="625.5" y="-69.8" font-family="Times,serif" font-size="24.00">Hurdle = False</text>
</g>
<!-- root_SameHand_true_SameFinger_true_SameKey_false_Reach_true&#45;&gt;root_SameHand_true_SameFinger_true_SameKey_false_Reach_true_Hurdle_false -->
<g id="edge12" class="edge">
<title>root_SameHand_true_SameFinger_true_SameKey_false_Reach_true&#45;&gt;root_SameHand_true_SameFinger_true_SameKey_false_Reach_true_Hurdle_false</title>
<path fill="none" stroke="black" stroke-width="1.5" d="M599.11,-115.89C601.98,-111.66 605.12,-107.03 608.2,-102.49"/>
<polygon fill="black" stroke="black" stroke-width="1.5" points="611.24,-104.24 613.96,-94 605.45,-100.31 611.24,-104.24"/>
</g>
<!-- root_SameHand_true_SameFinger_true_SameKey_false_Reach_true_Hurdle_true_leaf -->
<g id="node12" class="node">
<title>root_SameHand_true_SameFinger_true_SameKey_false_Reach_true_Hurdle_true_leaf</title>
<polygon fill="none" stroke="black" points="471.5,-36 357.5,-36 357.5,0 471.5,0 471.5,-36"/>
<text text-anchor="middle" x="414.5" y="-11.8" font-family="Times,serif" font-size="24.00">0.00702</text>
</g>
<!-- root_SameHand_true_SameFinger_true_SameKey_false_Reach_true_Hurdle_true&#45;&gt;root_SameHand_true_SameFinger_true_SameKey_false_Reach_true_Hurdle_true_leaf -->
<g id="edge11" class="edge">
<title>root_SameHand_true_SameFinger_true_SameKey_false_Reach_true_Hurdle_true&#45;&gt;root_SameHand_true_SameFinger_true_SameKey_false_Reach_true_Hurdle_true_leaf</title>
<path fill="none" stroke="black" stroke-width="1.5" d="M414.5,-57.89C414.5,-54.2 414.5,-50.21 414.5,-46.24"/>
<polygon fill="black" stroke="black" stroke-width="1.5" points="418,-46 414.5,-36 411,-46 418,-46"/>
</g>
<!-- root_SameHand_true_SameFinger_true_SameKey_false_Reach_true_Hurdle_false_leaf -->
<g id="node14" class="node">
<title>root_SameHand_true_SameFinger_true_SameKey_false_Reach_true_Hurdle_false_leaf</title>
<polygon fill="none" stroke="black" points="675,-36 576,-36 576,0 675,0 675,-36"/>
<text text-anchor="middle" x="625.5" y="-11.8" font-family="Times,serif" font-size="24.00">0.0145</text>
</g>
<!-- root_SameHand_true_SameFinger_true_SameKey_false_Reach_true_Hurdle_false&#45;&gt;root_SameHand_true_SameFinger_true_SameKey_false_Reach_true_Hurdle_false_leaf -->
<g id="edge13" class="edge">
<title>root_SameHand_true_SameFinger_true_SameKey_false_Reach_true_Hurdle_false&#45;&gt;root_SameHand_true_SameFinger_true_SameKey_false_Reach_true_Hurdle_false_leaf</title>
<path fill="none" stroke="black" stroke-width="1.5" d="M625.5,-57.89C625.5,-54.2 625.5,-50.21 625.5,-46.24"/>
<polygon fill="black" stroke="black" stroke-width="1.5" points="629,-46 625.5,-36 622,-46 629,-46"/>
</g>
<!-- root_SameHand_true_SameFinger_true_SameKey_false_Reach_false_leaf -->
<g id="node16" class="node">
<title>root_SameHand_true_SameFinger_true_SameKey_false_Reach_false_leaf</title>
<polygon fill="none" stroke="black" points="839,-94 740,-94 740,-58 839,-58 839,-94"/>
<text text-anchor="middle" x="789.5" y="-69.8" font-family="Times,serif" font-size="24.00">0.0106</text>
</g>
<!-- root_SameHand_true_SameFinger_true_SameKey_false_Reach_false&#45;&gt;root_SameHand_true_SameFinger_true_SameKey_false_Reach_false_leaf -->
<g id="edge15" class="edge">
<title>root_SameHand_true_SameFinger_true_SameKey_false_Reach_false&#45;&gt;root_SameHand_true_SameFinger_true_SameKey_false_Reach_false_leaf</title>
<path fill="none" stroke="black" stroke-width="1.5" d="M789.5,-115.89C789.5,-112.2 789.5,-108.21 789.5,-104.24"/>
<polygon fill="black" stroke="black" stroke-width="1.5" points="793,-104 789.5,-94 786,-104 793,-104"/>
</g>
<!-- root_SameHand_true_SameFinger_false_SameKey_false -->
<g id="node18" class="node">
<title>root_SameHand_true_SameFinger_false_SameKey_false</title>
<polygon fill="none" stroke="black" points="1195,-210 968,-210 968,-174 1195,-174 1195,-210"/>
<text text-anchor="middle" x="1081.5" y="-185.8" font-family="Times,serif" font-size="24.00">SameKey = False</text>
</g>
<!-- root_SameHand_true_SameFinger_false&#45;&gt;root_SameHand_true_SameFinger_false_SameKey_false -->
<g id="edge17" class="edge">
<title>root_SameHand_true_SameFinger_false&#45;&gt;root_SameHand_true_SameFinger_false_SameKey_false</title>
<path fill="none" stroke="black" stroke-width="1.5" d="M1081.5,-231.89C1081.5,-228.2 1081.5,-224.21 1081.5,-220.24"/>
<polygon fill="black" stroke="black" stroke-width="1.5" points="1085,-220 1081.5,-210 1078,-220 1085,-220"/>
</g>
<!-- root_SameHand_true_SameFinger_false_SameKey_false_Reach_true -->
<g id="node19" class="node">
<title>root_SameHand_true_SameFinger_false_SameKey_false_Reach_true</title>
<polygon fill="none" stroke="black" points="1150,-152 965,-152 965,-116 1150,-116 1150,-152"/>
<text text-anchor="middle" x="1057.5" y="-127.8" font-family="Times,serif" font-size="24.00">Reach = True</text>
</g>
<!-- root_SameHand_true_SameFinger_false_SameKey_false&#45;&gt;root_SameHand_true_SameFinger_false_SameKey_false_Reach_true -->
<g id="edge18" class="edge">
<title>root_SameHand_true_SameFinger_false_SameKey_false&#45;&gt;root_SameHand_true_SameFinger_false_SameKey_false_Reach_true</title>
<path fill="none" stroke="black" stroke-width="1.5" d="M1074.17,-173.89C1072.49,-169.99 1070.68,-165.74 1068.88,-161.54"/>
<polygon fill="black" stroke="black" stroke-width="1.5" points="1071.94,-159.81 1064.79,-152 1065.51,-162.57 1071.94,-159.81"/>
</g>
<!-- root_SameHand_true_SameFinger_false_SameKey_false_Reach_false -->
<g id="node24" class="node">
<title>root_SameHand_true_SameFinger_false_SameKey_false_Reach_false</title>
<polygon fill="none" stroke="black" points="1355,-152 1164,-152 1164,-116 1355,-116 1355,-152"/>
<text text-anchor="middle" x="1259.5" y="-127.8" font-family="Times,serif" font-size="24.00">Reach = False</text>
</g>
<!-- root_SameHand_true_SameFinger_false_SameKey_false&#45;&gt;root_SameHand_true_SameFinger_false_SameKey_false_Reach_false -->
<g id="edge23" class="edge">
<title>root_SameHand_true_SameFinger_false_SameKey_false&#45;&gt;root_SameHand_true_SameFinger_false_SameKey_false_Reach_false</title>
<path fill="none" stroke="black" stroke-width="1.5" d="M1135.87,-173.89C1154.76,-167.95 1176.12,-161.23 1195.71,-155.07"/>
<polygon fill="black" stroke="black" stroke-width="1.5" points="1196.97,-158.34 1205.46,-152 1194.87,-151.66 1196.97,-158.34"/>
</g>
<!-- root_SameHand_true_SameFinger_false_SameKey_false_Reach_true_Hurdle_true -->
<g id="node20" class="node">
<title>root_SameHand_true_SameFinger_false_SameKey_false_Reach_true_Hurdle_true</title>
<polygon fill="none" stroke="black" points="1047.5,-94 853.5,-94 853.5,-58 1047.5,-58 1047.5,-94"/>
<text text-anchor="middle" x="950.5" y="-69.8" font-family="Times,serif" font-size="24.00">Hurdle = True</text>
</g>
<!-- root_SameHand_true_SameFinger_false_SameKey_false_Reach_true&#45;&gt;root_SameHand_true_SameFinger_false_SameKey_false_Reach_true_Hurdle_true -->
<g id="edge19" class="edge">
<title>root_SameHand_true_SameFinger_false_SameKey_false_Reach_true&#45;&gt;root_SameHand_true_SameFinger_false_SameKey_false_Reach_true_Hurdle_true</title>
<path fill="none" stroke="black" stroke-width="1.5" d="M1024.82,-115.89C1014.44,-110.47 1002.84,-104.39 991.93,-98.69"/>
<polygon fill="black" stroke="black" stroke-width="1.5" points="993.47,-95.54 982.98,-94 990.22,-101.74 993.47,-95.54"/>
</g>
<!-- root_SameHand_true_SameFinger_false_SameKey_false_Reach_true_Hurdle_false -->
<g id="node22" class="node">
<title>root_SameHand_true_SameFinger_false_SameKey_false_Reach_true_Hurdle_false</title>
<polygon fill="none" stroke="black" points="1261.5,-94 1061.5,-94 1061.5,-58 1261.5,-58 1261.5,-94"/>
<text text-anchor="middle" x="1161.5" y="-69.8" font-family="Times,serif" font-size="24.00">Hurdle = False</text>
</g>
<!-- root_SameHand_true_SameFinger_false_SameKey_false_Reach_true&#45;&gt;root_SameHand_true_SameFinger_false_SameKey_false_Reach_true_Hurdle_false -->
<g id="edge21" class="edge">
<title>root_SameHand_true_SameFinger_false_SameKey_false_Reach_true&#45;&gt;root_SameHand_true_SameFinger_false_SameKey_false_Reach_true_Hurdle_false</title>
<path fill="none" stroke="black" stroke-width="1.5" d="M1089.27,-115.89C1099.25,-110.52 1110.41,-104.51 1120.91,-98.86"/>
<polygon fill="black" stroke="black" stroke-width="1.5" points="1122.78,-101.82 1129.93,-94 1119.46,-95.66 1122.78,-101.82"/>
</g>
<!-- root_SameHand_true_SameFinger_false_SameKey_false_Reach_true_Hurdle_true_leaf -->
<g id="node21" class="node">
<title>root_SameHand_true_SameFinger_false_SameKey_false_Reach_true_Hurdle_true_leaf</title>
<polygon fill="none" stroke="black" points="1000,-36 901,-36 901,0 1000,0 1000,-36"/>
<text text-anchor="middle" x="950.5" y="-11.8" font-family="Times,serif" font-size="24.00">0.0209</text>
</g>
<!-- root_SameHand_true_SameFinger_false_SameKey_false_Reach_true_Hurdle_true&#45;&gt;root_SameHand_true_SameFinger_false_SameKey_false_Reach_true_Hurdle_true_leaf -->
<g id="edge20" class="edge">
<title>root_SameHand_true_SameFinger_false_SameKey_false_Reach_true_Hurdle_true&#45;&gt;root_SameHand_true_SameFinger_false_SameKey_false_Reach_true_Hurdle_true_leaf</title>
<path fill="none" stroke="black" stroke-width="1.5" d="M950.5,-57.89C950.5,-54.2 950.5,-50.21 950.5,-46.24"/>
<polygon fill="black" stroke="black" stroke-width="1.5" points="954,-46 950.5,-36 947,-46 954,-46"/>
</g>
<!-- root_SameHand_true_SameFinger_false_SameKey_false_Reach_true_Hurdle_false_leaf -->
<g id="node23" class="node">
<title>root_SameHand_true_SameFinger_false_SameKey_false_Reach_true_Hurdle_false_leaf</title>
<polygon fill="none" stroke="black" points="1211,-36 1112,-36 1112,0 1211,0 1211,-36"/>
<text text-anchor="middle" x="1161.5" y="-11.8" font-family="Times,serif" font-size="24.00">0.0522</text>
</g>
<!-- root_SameHand_true_SameFinger_false_SameKey_false_Reach_true_Hurdle_false&#45;&gt;root_SameHand_true_SameFinger_false_SameKey_false_Reach_true_Hurdle_false_leaf -->
<g id="edge22" class="edge">
<title>root_SameHand_true_SameFinger_false_SameKey_false_Reach_true_Hurdle_false&#45;&gt;root_SameHand_true_SameFinger_false_SameKey_false_Reach_true_Hurdle_false_leaf</title>
<path fill="none" stroke="black" stroke-width="1.5" d="M1161.5,-57.89C1161.5,-54.2 1161.5,-50.21 1161.5,-46.24"/>
<polygon fill="black" stroke="black" stroke-width="1.5" points="1165,-46 1161.5,-36 1158,-46 1165,-46"/>
</g>
<!-- root_SameHand_true_SameFinger_false_SameKey_false_Reach_false_leaf -->
<g id="node25" class="node">
<title>root_SameHand_true_SameFinger_false_SameKey_false_Reach_false_leaf</title>
<polygon fill="none" stroke="black" points="1375,-94 1276,-94 1276,-58 1375,-58 1375,-94"/>
<text text-anchor="middle" x="1325.5" y="-69.8" font-family="Times,serif" font-size="24.00">0.0581</text>
</g>
<!-- root_SameHand_true_SameFinger_false_SameKey_false_Reach_false&#45;&gt;root_SameHand_true_SameFinger_false_SameKey_false_Reach_false_leaf -->
<g id="edge24" class="edge">
<title>root_SameHand_true_SameFinger_false_SameKey_false_Reach_false&#45;&gt;root_SameHand_true_SameFinger_false_SameKey_false_Reach_false_leaf</title>
<path fill="none" stroke="black" stroke-width="1.5" d="M1279.66,-115.89C1285.29,-111.12 1291.51,-105.84 1297.5,-100.75"/>
<polygon fill="black" stroke="black" stroke-width="1.5" points="1300.1,-103.14 1305.46,-94 1295.57,-97.8 1300.1,-103.14"/>
</g>
<!-- root_SameHand_false_Reach_true -->
<g id="node27" class="node">
<title>root_SameHand_false_Reach_true</title>
<polygon fill="none" stroke="black" points="1461,-268 1276,-268 1276,-232 1461,-232 1461,-268"/>
<text text-anchor="middle" x="1368.5" y="-243.8" font-family="Times,serif" font-size="24.00">Reach = True</text>
</g>
<!-- root_SameHand_false&#45;&gt;root_SameHand_false_Reach_true -->
<g id="edge26" class="edge">
<title>root_SameHand_false&#45;&gt;root_SameHand_false_Reach_true</title>
<path fill="none" stroke="black" stroke-width="1.5" d="M1368.5,-289.89C1368.5,-286.2 1368.5,-282.21 1368.5,-278.24"/>
<polygon fill="black" stroke="black" stroke-width="1.5" points="1372,-278 1368.5,-268 1365,-278 1372,-278"/>
</g>
<!-- root_SameHand_false_Reach_false -->
<g id="node30" class="node">
<title>root_SameHand_false_Reach_false</title>
<polygon fill="none" stroke="black" points="1666,-268 1475,-268 1475,-232 1666,-232 1666,-268"/>
<text text-anchor="middle" x="1570.5" y="-243.8" font-family="Times,serif" font-size="24.00">Reach = False</text>
</g>
<!-- root_SameHand_false&#45;&gt;root_SameHand_false_Reach_false -->
<g id="edge29" class="edge">
<title>root_SameHand_false&#45;&gt;root_SameHand_false_Reach_false</title>
<path fill="none" stroke="black" stroke-width="1.5" d="M1429.93,-289.97C1451.77,-283.92 1476.54,-277.05 1499.14,-270.78"/>
<polygon fill="black" stroke="black" stroke-width="1.5" points="1500.31,-274.09 1509.01,-268.05 1498.44,-267.34 1500.31,-274.09"/>
</g>
<!-- root_SameHand_false_Reach_true_Hurdle_false -->
<g id="node28" class="node">
<title>root_SameHand_false_Reach_true_Hurdle_false</title>
<polygon fill="none" stroke="black" points="1487.5,-210 1287.5,-210 1287.5,-174 1487.5,-174 1487.5,-210"/>
<text text-anchor="middle" x="1387.5" y="-185.8" font-family="Times,serif" font-size="24.00">Hurdle = False</text>
</g>
<!-- root_SameHand_false_Reach_true&#45;&gt;root_SameHand_false_Reach_true_Hurdle_false -->
<g id="edge27" class="edge">
<title>root_SameHand_false_Reach_true&#45;&gt;root_SameHand_false_Reach_true_Hurdle_false</title>
<path fill="none" stroke="black" stroke-width="1.5" d="M1374.3,-231.89C1375.63,-227.99 1377.07,-223.74 1378.49,-219.54"/>
<polygon fill="black" stroke="black" stroke-width="1.5" points="1381.83,-220.6 1381.73,-210 1375.2,-218.35 1381.83,-220.6"/>
</g>
<!-- root_SameHand_false_Reach_true_Hurdle_false_leaf -->
<g id="node29" class="node">
<title>root_SameHand_false_Reach_true_Hurdle_false_leaf</title>
<polygon fill="none" stroke="black" points="1453.5,-152 1369.5,-152 1369.5,-116 1453.5,-116 1453.5,-152"/>
<text text-anchor="middle" x="1411.5" y="-127.8" font-family="Times,serif" font-size="24.00">0.104</text>
</g>
<!-- root_SameHand_false_Reach_true_Hurdle_false&#45;&gt;root_SameHand_false_Reach_true_Hurdle_false_leaf -->
<g id="edge28" class="edge">
<title>root_SameHand_false_Reach_true_Hurdle_false&#45;&gt;root_SameHand_false_Reach_true_Hurdle_false_leaf</title>
<path fill="none" stroke="black" stroke-width="1.5" d="M1394.83,-173.89C1396.51,-169.99 1398.32,-165.74 1400.12,-161.54"/>
<polygon fill="black" stroke="black" stroke-width="1.5" points="1403.49,-162.57 1404.21,-152 1397.06,-159.81 1403.49,-162.57"/>
</g>
<!-- root_SameHand_false_Reach_false_leaf -->
<g id="node31" class="node">
<title>root_SameHand_false_Reach_false_leaf</title>
<polygon fill="none" stroke="black" points="1620,-210 1521,-210 1521,-174 1620,-174 1620,-210"/>
<text text-anchor="middle" x="1570.5" y="-185.8" font-family="Times,serif" font-size="24.00">0.0948</text>
</g>
<!-- root_SameHand_false_Reach_false&#45;&gt;root_SameHand_false_Reach_false_leaf -->
<g id="edge30" class="edge">
<title>root_SameHand_false_Reach_false&#45;&gt;root_SameHand_false_Reach_false_leaf</title>
<path fill="none" stroke="black" stroke-width="1.5" d="M1570.5,-231.89C1570.5,-228.2 1570.5,-224.21 1570.5,-220.24"/>
<polygon fill="black" stroke="black" stroke-width="1.5" points="1574,-220 1570.5,-210 1567,-220 1574,-220"/>
</g>
</g>
</svg>
