<?xml version="1.0" encoding="UTF-8" standalone="no"?>
<!DOCTYPE svg PUBLIC "-//W3C//DTD SVG 1.1//EN"
 "http://www.w3.org/Graphics/SVG/1.1/DTD/svg11.dtd">
<!-- Generated by graphviz version 2.43.0 (0)
 -->
<!-- Title: %3 Pages: 1 -->
<svg width="1800pt" height="430pt"
 viewBox="0.00 0.00 432.00 103.29" xmlns="http://www.w3.org/2000/svg" xmlns:xlink="http://www.w3.org/1999/xlink">
<g id="graph0" class="graph" transform="scale(1.07 1.07) rotate(0) translate(4 400.08)">
<title>%3</title>
<polygon fill="white" stroke="transparent" points="-4,4 -4,-400.08 1686,-400.08 1686,4 -4,4"/>
<!-- root -->
<g id="node1" class="node">
<title>root</title>
<ellipse fill="none" stroke="black" cx="1226.5" cy="-372.04" rx="55.31" ry="24.08"/>
<text text-anchor="middle" x="1226.5" y="-365.84" font-family="Times,serif" font-size="24.00">Start</text>
</g>
<!-- root_SameHand_true -->
<g id="node2" class="node">
<title>root_SameHand_true</title>
<polygon fill="none" stroke="black" points="1218.5,-326 976.5,-326 976.5,-290 1218.5,-290 1218.5,-326"/>
<text text-anchor="middle" x="1097.5" y="-301.8" font-family="Times,serif" font-size="24.00">SameHand = True</text>
</g>
<!-- root&#45;&gt;root_SameHand_true -->
<g id="edge1" class="edge">
<title>root&#45;&gt;root_SameHand_true</title>
<path fill="none" stroke="black" stroke-width="1.5" d="M1190.57,-353.76C1175.61,-346.57 1158.08,-338.14 1142.3,-330.55"/>
<polygon fill="black" stroke="black" stroke-width="1.5" points="1143.77,-327.37 1133.24,-326.19 1140.74,-333.68 1143.77,-327.37"/>
</g>
<!-- root_SameHand_false -->
<g id="node26" class="node">
<title>root_SameHand_false</title>
<polygon fill="none" stroke="black" points="1508.5,-326 1260.5,-326 1260.5,-290 1508.5,-290 1508.5,-326"/>
<text text-anchor="middle" x="1384.5" y="-301.8" font-family="Times,serif" font-size="24.00">SameHand = False</text>
</g>
<!-- root&#45;&gt;root_SameHand_false -->
<g id="edge25" class="edge">
<title>root&#45;&gt;root_SameHand_false</title>
<path fill="none" stroke="black" stroke-width="1.5" d="M1266.37,-355.39C1286.11,-347.63 1310.21,-338.17 1331.48,-329.82"/>
<polygon fill="black" stroke="black" stroke-width="1.5" points="1333,-332.98 1341.03,-326.07 1330.44,-326.47 1333,-332.98"/>
</g>
<!-- root_SameHand_true_SameFinger_true -->
<g id="node3" class="node">
<title>root_SameHand_true_SameFinger_true</title>
<polygon fill="none" stroke="black" points="832,-268 575,-268 575,-232 832,-232 832,-268"/>
<text text-anchor="middle" x="703.5" y="-243.8" font-family="Times,serif" font-size="24.00">SameFinger = True</text>
</g>
<!-- root_SameHand_true&#45;&gt;root_SameHand_true_SameFinger_true -->
<g id="edge2" class="edge">
<title>root_SameHand_true&#45;&gt;root_SameHand_true_SameFinger_true</title>
<path fill="none" stroke="black" stroke-width="1.5" d="M977.68,-289.97C932.12,-283.49 880.02,-276.09 833.56,-269.49"/>
<polygon fill="black" stroke="black" stroke-width="1.5" points="833.82,-265.99 823.43,-268.05 832.83,-272.92 833.82,-265.99"/>
</g>
<!-- root_SameHand_true_SameFinger_false -->
<g id="node17" class="node">
<title>root_SameHand_true_SameFinger_false</title>
<polygon fill="none" stroke="black" points="1229,-268 966,-268 966,-232 1229,-232 1229,-268"/>
<text text-anchor="middle" x="1097.5" y="-243.8" font-family="Times,serif" font-size="24.00">SameFinger = False</text>
</g>
<!-- root_SameHand_true&#45;&gt;root_SameHand_true_SameFinger_false -->
<g id="edge16" class="edge">
<title>root_SameHand_true&#45;&gt;root_SameHand_true_SameFinger_false</title>
<path fill="none" stroke="black" stroke-width="1.5" d="M1097.5,-289.89C1097.5,-286.2 1097.5,-282.21 1097.5,-278.24"/>
<polygon fill="black" stroke="black" stroke-width="1.5" points="1101,-278 1097.5,-268 1094,-278 1101,-278"/>
</g>
<!-- root_SameHand_true_SameFinger_true_SameKey_true -->
<g id="node4" class="node">
<title>root_SameHand_true_SameFinger_true_SameKey_true</title>
<polygon fill="none" stroke="black" points="405,-210 184,-210 184,-174 405,-174 405,-210"/>
<text text-anchor="middle" x="294.5" y="-185.8" font-family="Times,serif" font-size="24.00">SameKey = True</text>
</g>
<!-- root_SameHand_true_SameFinger_true&#45;&gt;root_SameHand_true_SameFinger_true_SameKey_true -->
<g id="edge3" class="edge">
<title>root_SameHand_true_SameFinger_true&#45;&gt;root_SameHand_true_SameFinger_true_SameKey_true</title>
<path fill="none" stroke="black" stroke-width="1.5" d="M579.12,-231.97C527.12,-224.85 466.92,-216.61 415.3,-209.54"/>
<polygon fill="black" stroke="black" stroke-width="1.5" points="415.48,-206.03 405.1,-208.14 414.53,-212.97 415.48,-206.03"/>
</g>
<!-- root_SameHand_true_SameFinger_true_SameKey_false -->
<g id="node9" class="node">
<title>root_SameHand_true_SameFinger_true_SameKey_false</title>
<polygon fill="none" stroke="black" points="817,-210 590,-210 590,-174 817,-174 817,-210"/>
<text text-anchor="middle" x="703.5" y="-185.8" font-family="Times,serif" font-size="24.00">SameKey = False</text>
</g>
<!-- root_SameHand_true_SameFinger_true&#45;&gt;root_SameHand_true_SameFinger_true_SameKey_false -->
<g id="edge8" class="edge">
<title>root_SameHand_true_SameFinger_true&#45;&gt;root_SameHand_true_SameFinger_true_SameKey_false</title>
<path fill="none" stroke="black" stroke-width="1.5" d="M703.5,-231.89C703.5,-228.2 703.5,-224.21 703.5,-220.24"/>
<polygon fill="black" stroke="black" stroke-width="1.5" points="707,-220 703.5,-210 700,-220 707,-220"/>
</g>
<!-- root_SameHand_true_SameFinger_true_SameKey_true_Reach_true -->
<g id="node5" class="node">
<title>root_SameHand_true_SameFinger_true_SameKey_true_Reach_true</title>
<polygon fill="none" stroke="black" points="185,-152 0,-152 0,-116 185,-116 185,-152"/>
<text text-anchor="middle" x="92.5" y="-127.8" font-family="Times,serif" font-size="24.00">Reach = True</text>
</g>
<!-- root_SameHand_true_SameFinger_true_SameKey_true&#45;&gt;root_SameHand_true_SameFinger_true_SameKey_true_Reach_true -->
<g id="edge4" class="edge">
<title>root_SameHand_true_SameFinger_true_SameKey_true&#45;&gt;root_SameHand_true_SameFinger_true_SameKey_true_Reach_true</title>
<path fill="none" stroke="black" stroke-width="1.5" d="M233.07,-173.97C211.23,-167.92 186.46,-161.05 163.86,-154.78"/>
<polygon fill="black" stroke="black" stroke-width="1.5" points="164.56,-151.34 153.99,-152.05 162.69,-158.09 164.56,-151.34"/>
</g>
<!-- root_SameHand_true_SameFinger_true_SameKey_true_Reach_false -->
<g id="node7" class="node">
<title>root_SameHand_true_SameFinger_true_SameKey_true_Reach_false</title>
<polygon fill="none" stroke="black" points="390,-152 199,-152 199,-116 390,-116 390,-152"/>
<text text-anchor="middle" x="294.5" y="-127.8" font-family="Times,serif" font-size="24.00">Reach = False</text>
</g>
<!-- root_SameHand_true_SameFinger_true_SameKey_true&#45;&gt;root_SameHand_true_SameFinger_true_SameKey_true_Reach_false -->
<g id="edge6" class="edge">
<title>root_SameHand_true_SameFinger_true_SameKey_true&#45;&gt;root_SameHand_true_SameFinger_true_SameKey_true_Reach_false</title>
<path fill="none" stroke="black" stroke-width="1.5" d="M294.5,-173.89C294.5,-170.2 294.5,-166.21 294.5,-162.24"/>
<polygon fill="black" stroke="black" stroke-width="1.5" points="298,-162 294.5,-152 291,-162 298,-162"/>
</g>
<!-- root_SameHand_true_SameFinger_true_SameKey_true_Reach_true_leaf -->
<g id="node6" class="node">
<title>root_SameHand_true_SameFinger_true_SameKey_true_Reach_true_leaf</title>
<polygon fill="none" stroke="black" points="157,-94 28,-94 28,-58 157,-58 157,-94"/>
<text text-anchor="middle" x="92.5" y="-69.8" font-family="Times,serif" font-size="24.00">0.000982</text>
</g>
<!-- root_SameHand_true_SameFinger_true_SameKey_true_Reach_true&#45;&gt;root_SameHand_true_SameFinger_true_SameKey_true_Reach_true_leaf -->
<g id="edge5" class="edge">
<title>root_SameHand_true_SameFinger_true_SameKey_true_Reach_true&#45;&gt;root_SameHand_true_SameFinger_true_SameKey_true_Reach_true_leaf</title>
<path fill="none" stroke="black" stroke-width="1.5" d="M92.5,-115.89C92.5,-112.2 92.5,-108.21 92.5,-104.24"/>
<polygon fill="black" stroke="black" stroke-width="1.5" points="96,-104 92.5,-94 89,-104 96,-104"/>
</g>
<!-- root_SameHand_true_SameFinger_true_SameKey_true_Reach_false_leaf -->
<g id="node8" class="node">
<title>root_SameHand_true_SameFinger_true_SameKey_true_Reach_false_leaf</title>
<polygon fill="none" stroke="black" points="318.5,-94 204.5,-94 204.5,-58 318.5,-58 318.5,-94"/>
<text text-anchor="middle" x="261.5" y="-69.8" font-family="Times,serif" font-size="24.00">0.00389</text>
</g>
<!-- root_SameHand_true_SameFinger_true_SameKey_true_Reach_false&#45;&gt;root_SameHand_true_SameFinger_true_SameKey_true_Reach_false_leaf -->
<g id="edge7" class="edge">
<title>root_SameHand_true_SameFinger_true_SameKey_true_Reach_false&#45;&gt;root_SameHand_true_SameFinger_true_SameKey_true_Reach_false_leaf</title>
<path fill="none" stroke="black" stroke-width="1.5" d="M284.42,-115.89C281.99,-111.77 279.34,-107.27 276.73,-102.84"/>
<polygon fill="black" stroke="black" stroke-width="1.5" points="279.61,-100.84 271.52,-94 273.58,-104.39 279.61,-100.84"/>
</g>
<!-- root_SameHand_true_SameFinger_true_SameKey_false_Reach_true -->
<g id="node10" class="node">
<title>root_SameHand_true_SameFinger_true_SameKey_false_Reach_true</title>
<polygon fill="none" stroke="black" points="695,-152 510,-152 510,-116 695,-116 695,-152"/>
<text text-anchor="middle" x="602.5" y="-127.8" font-family="Times,serif" font-size="24.00">Reach = True</text>
</g>
<!-- root_SameHand_true_SameFinger_true_SameKey_false&#45;&gt;root_SameHand_true_SameFinger_true_SameKey_false_Reach_true -->
<g id="edge9" class="edge">
<title>root_SameHand_true_SameFinger_true_SameKey_false&#45;&gt;root_SameHand_true_SameFinger_true_SameKey_false_Reach_true</title>
<path fill="none" stroke="black" stroke-width="1.5" d="M672.65,-173.89C662.96,-168.52 652.12,-162.51 641.92,-156.86"/>
<polygon fill="black" stroke="black" stroke-width="1.5" points="643.61,-153.79 633.16,-152 640.21,-159.91 643.61,-153.79"/>
</g>
<!-- root_SameHand_true_SameFinger_true_SameKey_false_Reach_false -->
<g id="node15" class="node">
<title>root_SameHand_true_SameFinger_true_SameKey_false_Reach_false</title>
<polygon fill="none" stroke="black" points="900,-152 709,-152 709,-116 900,-116 900,-152"/>
<text text-anchor="middle" x="804.5" y="-127.8" font-family="Times,serif" font-size="24.00">Reach = False</text>
</g>
<!-- root_SameHand_true_SameFinger_true_SameKey_false&#45;&gt;root_SameHand_true_SameFinger_true_SameKey_false_Reach_false -->
<g id="edge14" class="edge">
<title>root_SameHand_true_SameFinger_true_SameKey_false&#45;&gt;root_SameHand_true_SameFinger_true_SameKey_false_Reach_false</title>
<path fill="none" stroke="black" stroke-width="1.5" d="M734.35,-173.89C744.04,-168.52 754.88,-162.51 765.08,-156.86"/>
<polygon fill="black" stroke="black" stroke-width="1.5" points="766.79,-159.91 773.84,-152 763.39,-153.79 766.79,-159.91"/>
</g>
<!-- root_SameHand_true_SameFinger_true_SameKey_false_Reach_true_Hurdle_true -->
<g id="node11" class="node">
<title>root_SameHand_true_SameFinger_true_SameKey_false_Reach_true_Hurdle_true</title>
<polygon fill="none" stroke="black" points="526.5,-94 332.5,-94 332.5,-58 526.5,-58 526.5,-94"/>
<text text-anchor="middle" x="429.5" y="-69.8" font-family="Times,serif" font-size="24.00">Hurdle = True</text>
</g>
<!-- root_SameHand_true_SameFinger_true_SameKey_false_Reach_true&#45;&gt;root_SameHand_true_SameFinger_true_SameKey_false_Reach_true_Hurdle_true -->
<g id="edge10" class="edge">
<title>root_SameHand_true_SameFinger_true_SameKey_false_Reach_true&#45;&gt;root_SameHand_true_SameFinger_true_SameKey_false_Reach_true_Hurdle_true</title>
<path fill="none" stroke="black" stroke-width="1.5" d="M549.65,-115.89C531.38,-109.98 510.72,-103.29 491.76,-97.15"/>
<polygon fill="black" stroke="black" stroke-width="1.5" points="492.61,-93.75 482.02,-94 490.46,-100.41 492.61,-93.75"/>
</g>
<!-- root_SameHand_true_SameFinger_true_SameKey_false_Reach_true_Hurdle_false -->
<g id="node13" class="node">
<title>root_SameHand_true_SameFinger_true_SameKey_false_Reach_true_Hurdle_false</title>
<polygon fill="none" stroke="black" points="740.5,-94 540.5,-94 540.5,-58 740.5,-58 740.5,-94"/>
<text text-anchor="middle" x="640.5" y="-69.8" font-family="Times,serif" font-size="24.00">Hurdle = False</text>
</g>
<!-- root_SameHand_true_SameFinger_true_SameKey_false_Reach_true&#45;&gt;root_SameHand_true_SameFinger_true_SameKey_false_Reach_true_Hurdle_false -->
<g id="edge12" class="edge">
<title>root_SameHand_true_SameFinger_true_SameKey_false_Reach_true&#45;&gt;root_SameHand_true_SameFinger_true_SameKey_false_Reach_true_Hurdle_false</title>
<path fill="none" stroke="black" stroke-width="1.5" d="M614.11,-115.89C616.98,-111.66 620.12,-107.03 623.2,-102.49"/>
<polygon fill="black" stroke="black" stroke-width="1.5" points="626.24,-104.24 628.96,-94 620.45,-100.31 626.24,-104.24"/>
</g>
<!-- root_SameHand_true_SameFinger_true_SameKey_false_Reach_true_Hurdle_true_leaf -->
<g id="node12" class="node">
<title>root_SameHand_true_SameFinger_true_SameKey_false_Reach_true_Hurdle_true_leaf</title>
<polygon fill="none" stroke="black" points="486.5,-36 372.5,-36 372.5,0 486.5,0 486.5,-36"/>
<text text-anchor="middle" x="429.5" y="-11.8" font-family="Times,serif" font-size="24.00">0.00239</text>
</g>
<!-- root_SameHand_true_SameFinger_true_SameKey_false_Reach_true_Hurdle_true&#45;&gt;root_SameHand_true_SameFinger_true_SameKey_false_Reach_true_Hurdle_true_leaf -->
<g id="edge11" class="edge">
<title>root_SameHand_true_SameFinger_true_SameKey_false_Reach_true_Hurdle_true&#45;&gt;root_SameHand_true_SameFinger_true_SameKey_false_Reach_true_Hurdle_true_leaf</title>
<path fill="none" stroke="black" stroke-width="1.5" d="M429.5,-57.89C429.5,-54.2 429.5,-50.21 429.5,-46.24"/>
<polygon fill="black" stroke="black" stroke-width="1.5" points="433,-46 429.5,-36 426,-46 433,-46"/>
</g>
<!-- root_SameHand_true_SameFinger_true_SameKey_false_Reach_true_Hurdle_false_leaf -->
<g id="node14" class="node">
<title>root_SameHand_true_SameFinger_true_SameKey_false_Reach_true_Hurdle_false_leaf</title>
<polygon fill="none" stroke="black" points="690,-36 591,-36 591,0 690,0 690,-36"/>
<text text-anchor="middle" x="640.5" y="-11.8" font-family="Times,serif" font-size="24.00">0.0131</text>
</g>
<!-- root_SameHand_true_SameFinger_true_SameKey_false_Reach_true_Hurdle_false&#45;&gt;root_SameHand_true_SameFinger_true_SameKey_false_Reach_true_Hurdle_false_leaf -->
<g id="edge13" class="edge">
<title>root_SameHand_true_SameFinger_true_SameKey_false_Reach_true_Hurdle_false&#45;&gt;root_SameHand_true_SameFinger_true_SameKey_false_Reach_true_Hurdle_false_leaf</title>
<path fill="none" stroke="black" stroke-width="1.5" d="M640.5,-57.89C640.5,-54.2 640.5,-50.21 640.5,-46.24"/>
<polygon fill="black" stroke="black" stroke-width="1.5" points="644,-46 640.5,-36 637,-46 644,-46"/>
</g>
<!-- root_SameHand_true_SameFinger_true_SameKey_false_Reach_false_leaf -->
<g id="node16" class="node">
<title>root_SameHand_true_SameFinger_true_SameKey_false_Reach_false_leaf</title>
<polygon fill="none" stroke="black" points="854,-94 755,-94 755,-58 854,-58 854,-94"/>
<text text-anchor="middle" x="804.5" y="-69.8" font-family="Times,serif" font-size="24.00">0.0128</text>
</g>
<!-- root_SameHand_true_SameFinger_true_SameKey_false_Reach_false&#45;&gt;root_SameHand_true_SameFinger_true_SameKey_false_Reach_false_leaf -->
<g id="edge15" class="edge">
<title>root_SameHand_true_SameFinger_true_SameKey_false_Reach_false&#45;&gt;root_SameHand_true_SameFinger_true_SameKey_false_Reach_false_leaf</title>
<path fill="none" stroke="black" stroke-width="1.5" d="M804.5,-115.89C804.5,-112.2 804.5,-108.21 804.5,-104.24"/>
<polygon fill="black" stroke="black" stroke-width="1.5" points="808,-104 804.5,-94 801,-104 808,-104"/>
</g>
<!-- root_SameHand_true_SameFinger_false_SameKey_false -->
<g id="node18" class="node">
<title>root_SameHand_true_SameFinger_false_SameKey_false</title>
<polygon fill="none" stroke="black" points="1211,-210 984,-210 984,-174 1211,-174 1211,-210"/>
<text text-anchor="middle" x="1097.5" y="-185.8" font-family="Times,serif" font-size="24.00">SameKey = False</text>
</g>
<!-- root_SameHand_true_SameFinger_false&#45;&gt;root_SameHand_true_SameFinger_false_SameKey_false -->
<g id="edge17" class="edge">
<title>root_SameHand_true_SameFinger_false&#45;&gt;root_SameHand_true_SameFinger_false_SameKey_false</title>
<path fill="none" stroke="black" stroke-width="1.5" d="M1097.5,-231.89C1097.5,-228.2 1097.5,-224.21 1097.5,-220.24"/>
<polygon fill="black" stroke="black" stroke-width="1.5" points="1101,-220 1097.5,-210 1094,-220 1101,-220"/>
</g>
<!-- root_SameHand_true_SameFinger_false_SameKey_false_Reach_true -->
<g id="node19" class="node">
<title>root_SameHand_true_SameFinger_false_SameKey_false_Reach_true</title>
<polygon fill="none" stroke="black" points="1165,-152 980,-152 980,-116 1165,-116 1165,-152"/>
<text text-anchor="middle" x="1072.5" y="-127.8" font-family="Times,serif" font-size="24.00">Reach = True</text>
</g>
<!-- root_SameHand_true_SameFinger_false_SameKey_false&#45;&gt;root_SameHand_true_SameFinger_false_SameKey_false_Reach_true -->
<g id="edge18" class="edge">
<title>root_SameHand_true_SameFinger_false_SameKey_false&#45;&gt;root_SameHand_true_SameFinger_false_SameKey_false_Reach_true</title>
<path fill="none" stroke="black" stroke-width="1.5" d="M1089.86,-173.89C1088.07,-169.88 1086.12,-165.51 1084.19,-161.19"/>
<polygon fill="black" stroke="black" stroke-width="1.5" points="1087.36,-159.71 1080.09,-152 1080.97,-162.56 1087.36,-159.71"/>
</g>
<!-- root_SameHand_true_SameFinger_false_SameKey_false_Reach_false -->
<g id="node24" class="node">
<title>root_SameHand_true_SameFinger_false_SameKey_false_Reach_false</title>
<polygon fill="none" stroke="black" points="1370,-152 1179,-152 1179,-116 1370,-116 1370,-152"/>
<text text-anchor="middle" x="1274.5" y="-127.8" font-family="Times,serif" font-size="24.00">Reach = False</text>
</g>
<!-- root_SameHand_true_SameFinger_false_SameKey_false&#45;&gt;root_SameHand_true_SameFinger_false_SameKey_false_Reach_false -->
<g id="edge23" class="edge">
<title>root_SameHand_true_SameFinger_false_SameKey_false&#45;&gt;root_SameHand_true_SameFinger_false_SameKey_false_Reach_false</title>
<path fill="none" stroke="black" stroke-width="1.5" d="M1151.57,-173.89C1170.35,-167.95 1191.59,-161.23 1211.06,-155.07"/>
<polygon fill="black" stroke="black" stroke-width="1.5" points="1212.29,-158.35 1220.76,-152 1210.17,-151.68 1212.29,-158.35"/>
</g>
<!-- root_SameHand_true_SameFinger_false_SameKey_false_Reach_true_Hurdle_true -->
<g id="node20" class="node">
<title>root_SameHand_true_SameFinger_false_SameKey_false_Reach_true_Hurdle_true</title>
<polygon fill="none" stroke="black" points="1062.5,-94 868.5,-94 868.5,-58 1062.5,-58 1062.5,-94"/>
<text text-anchor="middle" x="965.5" y="-69.8" font-family="Times,serif" font-size="24.00">Hurdle = True</text>
</g>
<!-- root_SameHand_true_SameFinger_false_SameKey_false_Reach_true&#45;&gt;root_SameHand_true_SameFinger_false_SameKey_false_Reach_true_Hurdle_true -->
<g id="edge19" class="edge">
<title>root_SameHand_true_SameFinger_false_SameKey_false_Reach_true&#45;&gt;root_SameHand_true_SameFinger_false_SameKey_false_Reach_true_Hurdle_true</title>
<path fill="none" stroke="black" stroke-width="1.5" d="M1039.82,-115.89C1029.44,-110.47 1017.84,-104.39 1006.93,-98.69"/>
<polygon fill="black" stroke="black" stroke-width="1.5" points="1008.47,-95.54 997.98,-94 1005.22,-101.74 1008.47,-95.54"/>
</g>
<!-- root_SameHand_true_SameFinger_false_SameKey_false_Reach_true_Hurdle_false -->
<g id="node22" class="node">
<title>root_SameHand_true_SameFinger_false_SameKey_false_Reach_true_Hurdle_false</title>
<polygon fill="none" stroke="black" points="1276.5,-94 1076.5,-94 1076.5,-58 1276.5,-58 1276.5,-94"/>
<text text-anchor="middle" x="1176.5" y="-69.8" font-family="Times,serif" font-size="24.00">Hurdle = False</text>
</g>
<!-- root_SameHand_true_SameFinger_false_SameKey_false_Reach_true&#45;&gt;root_SameHand_true_SameFinger_false_SameKey_false_Reach_true_Hurdle_false -->
<g id="edge21" class="edge">
<title>root_SameHand_true_SameFinger_false_SameKey_false_Reach_true&#45;&gt;root_SameHand_true_SameFinger_false_SameKey_false_Reach_true_Hurdle_false</title>
<path fill="none" stroke="black" stroke-width="1.5" d="M1104.27,-115.89C1114.25,-110.52 1125.41,-104.51 1135.91,-98.86"/>
<polygon fill="black" stroke="black" stroke-width="1.5" points="1137.78,-101.82 1144.93,-94 1134.46,-95.66 1137.78,-101.82"/>
</g>
<!-- root_SameHand_true_SameFinger_false_SameKey_false_Reach_true_Hurdle_true_leaf -->
<g id="node21" class="node">
<title>root_SameHand_true_SameFinger_false_SameKey_false_Reach_true_Hurdle_true_leaf</title>
<polygon fill="none" stroke="black" points="1022.5,-36 908.5,-36 908.5,0 1022.5,0 1022.5,-36"/>
<text text-anchor="middle" x="965.5" y="-11.8" font-family="Times,serif" font-size="24.00">0.00313</text>
</g>
<!-- root_SameHand_true_SameFinger_false_SameKey_false_Reach_true_Hurdle_true&#45;&gt;root_SameHand_true_SameFinger_false_SameKey_false_Reach_true_Hurdle_true_leaf -->
<g id="edge20" class="edge">
<title>root_SameHand_true_SameFinger_false_SameKey_false_Reach_true_Hurdle_true&#45;&gt;root_SameHand_true_SameFinger_false_SameKey_false_Reach_true_Hurdle_true_leaf</title>
<path fill="none" stroke="black" stroke-width="1.5" d="M965.5,-57.89C965.5,-54.2 965.5,-50.21 965.5,-46.24"/>
<polygon fill="black" stroke="black" stroke-width="1.5" points="969,-46 965.5,-36 962,-46 969,-46"/>
</g>
<!-- root_SameHand_true_SameFinger_false_SameKey_false_Reach_true_Hurdle_false_leaf -->
<g id="node23" class="node">
<title>root_SameHand_true_SameFinger_false_SameKey_false_Reach_true_Hurdle_false_leaf</title>
<polygon fill="none" stroke="black" points="1226,-36 1127,-36 1127,0 1226,0 1226,-36"/>
<text text-anchor="middle" x="1176.5" y="-11.8" font-family="Times,serif" font-size="24.00">0.0285</text>
</g>
<!-- root_SameHand_true_SameFinger_false_SameKey_false_Reach_true_Hurdle_false&#45;&gt;root_SameHand_true_SameFinger_false_SameKey_false_Reach_true_Hurdle_false_leaf -->
<g id="edge22" class="edge">
<title>root_SameHand_true_SameFinger_false_SameKey_false_Reach_true_Hurdle_false&#45;&gt;root_SameHand_true_SameFinger_false_SameKey_false_Reach_true_Hurdle_false_leaf</title>
<path fill="none" stroke="black" stroke-width="1.5" d="M1176.5,-57.89C1176.5,-54.2 1176.5,-50.21 1176.5,-46.24"/>
<polygon fill="black" stroke="black" stroke-width="1.5" points="1180,-46 1176.5,-36 1173,-46 1180,-46"/>
</g>
<!-- root_SameHand_true_SameFinger_false_SameKey_false_Reach_false_leaf -->
<g id="node25" class="node">
<title>root_SameHand_true_SameFinger_false_SameKey_false_Reach_false_leaf</title>
<polygon fill="none" stroke="black" points="1390,-94 1291,-94 1291,-58 1390,-58 1390,-94"/>
<text text-anchor="middle" x="1340.5" y="-69.8" font-family="Times,serif" font-size="24.00">0.0664</text>
</g>
<!-- root_SameHand_true_SameFinger_false_SameKey_false_Reach_false&#45;&gt;root_SameHand_true_SameFinger_false_SameKey_false_Reach_false_leaf -->
<g id="edge24" class="edge">
<title>root_SameHand_true_SameFinger_false_SameKey_false_Reach_false&#45;&gt;root_SameHand_true_SameFinger_false_SameKey_false_Reach_false_leaf</title>
<path fill="none" stroke="black" stroke-width="1.5" d="M1294.66,-115.89C1300.29,-111.12 1306.51,-105.84 1312.5,-100.75"/>
<polygon fill="black" stroke="black" stroke-width="1.5" points="1315.1,-103.14 1320.46,-94 1310.57,-97.8 1315.1,-103.14"/>
</g>
<!-- root_SameHand_false_Reach_true -->
<g id="node27" class="node">
<title>root_SameHand_false_Reach_true</title>
<polygon fill="none" stroke="black" points="1477,-268 1292,-268 1292,-232 1477,-232 1477,-268"/>
<text text-anchor="middle" x="1384.5" y="-243.8" font-family="Times,serif" font-size="24.00">Reach = True</text>
</g>
<!-- root_SameHand_false&#45;&gt;root_SameHand_false_Reach_true -->
<g id="edge26" class="edge">
<title>root_SameHand_false&#45;&gt;root_SameHand_false_Reach_true</title>
<path fill="none" stroke="black" stroke-width="1.5" d="M1384.5,-289.89C1384.5,-286.2 1384.5,-282.21 1384.5,-278.24"/>
<polygon fill="black" stroke="black" stroke-width="1.5" points="1388,-278 1384.5,-268 1381,-278 1388,-278"/>
</g>
<!-- root_SameHand_false_Reach_false -->
<g id="node30" class="node">
<title>root_SameHand_false_Reach_false</title>
<polygon fill="none" stroke="black" points="1682,-268 1491,-268 1491,-232 1682,-232 1682,-268"/>
<text text-anchor="middle" x="1586.5" y="-243.8" font-family="Times,serif" font-size="24.00">Reach = False</text>
</g>
<!-- root_SameHand_false&#45;&gt;root_SameHand_false_Reach_false -->
<g id="edge29" class="edge">
<title>root_SameHand_false&#45;&gt;root_SameHand_false_Reach_false</title>
<path fill="none" stroke="black" stroke-width="1.5" d="M1445.93,-289.97C1467.77,-283.92 1492.54,-277.05 1515.14,-270.78"/>
<polygon fill="black" stroke="black" stroke-width="1.5" points="1516.31,-274.09 1525.01,-268.05 1514.44,-267.34 1516.31,-274.09"/>
</g>
<!-- root_SameHand_false_Reach_true_Hurdle_false -->
<g id="node28" class="node">
<title>root_SameHand_false_Reach_true_Hurdle_false</title>
<polygon fill="none" stroke="black" points="1507.5,-210 1307.5,-210 1307.5,-174 1507.5,-174 1507.5,-210"/>
<text text-anchor="middle" x="1407.5" y="-185.8" font-family="Times,serif" font-size="24.00">Hurdle = False</text>
</g>
<!-- root_SameHand_false_Reach_true&#45;&gt;root_SameHand_false_Reach_true_Hurdle_false -->
<g id="edge27" class="edge">
<title>root_SameHand_false_Reach_true&#45;&gt;root_SameHand_false_Reach_true_Hurdle_false</title>
<path fill="none" stroke="black" stroke-width="1.5" d="M1391.53,-231.89C1393.13,-227.99 1394.87,-223.74 1396.6,-219.54"/>
<polygon fill="black" stroke="black" stroke-width="1.5" points="1399.96,-220.58 1400.52,-210 1393.48,-217.92 1399.96,-220.58"/>
</g>
<!-- root_SameHand_false_Reach_true_Hurdle_false_leaf -->
<g id="node29" class="node">
<title>root_SameHand_false_Reach_true_Hurdle_false_leaf</title>
<polygon fill="none" stroke="black" points="1483,-152 1384,-152 1384,-116 1483,-116 1483,-152"/>
<text text-anchor="middle" x="1433.5" y="-127.8" font-family="Times,serif" font-size="24.00">0.0644</text>
</g>
<!-- root_SameHand_false_Reach_true_Hurdle_false&#45;&gt;root_SameHand_false_Reach_true_Hurdle_false_leaf -->
<g id="edge28" class="edge">
<title>root_SameHand_false_Reach_true_Hurdle_false&#45;&gt;root_SameHand_false_Reach_true_Hurdle_false_leaf</title>
<path fill="none" stroke="black" stroke-width="1.5" d="M1415.44,-173.89C1417.31,-169.88 1419.34,-165.51 1421.34,-161.19"/>
<polygon fill="black" stroke="black" stroke-width="1.5" points="1424.57,-162.55 1425.61,-152 1418.22,-159.6 1424.57,-162.55"/>
</g>
<!-- root_SameHand_false_Reach_false_leaf -->
<g id="node31" class="node">
<title>root_SameHand_false_Reach_false_leaf</title>
<polygon fill="none" stroke="black" points="1628.5,-210 1544.5,-210 1544.5,-174 1628.5,-174 1628.5,-210"/>
<text text-anchor="middle" x="1586.5" y="-185.8" font-family="Times,serif" font-size="24.00">0.113</text>
</g>
<!-- root_SameHand_false_Reach_false&#45;&gt;root_SameHand_false_Reach_false_leaf -->
<g id="edge30" class="edge">
<title>root_SameHand_false_Reach_false&#45;&gt;root_SameHand_false_Reach_false_leaf</title>
<path fill="none" stroke="black" stroke-width="1.5" d="M1586.5,-231.89C1586.5,-228.2 1586.5,-224.21 1586.5,-220.24"/>
<polygon fill="black" stroke="black" stroke-width="1.5" points="1590,-220 1586.5,-210 1583,-220 1590,-220"/>
</g>
</g>
</svg>
