<svg width="288" height="80" viewBox="0 0 288 80" fill="none" xmlns="http://www.w3.org/2000/svg">
<path d="M59.02 6.7002L58.17 6.2902C53.52 4.0202 48.57 2.4802 43.07 1.5902C42.78 1.5402 42.49 1.5002 42.2 1.4602C41.61 1.3702 41.02 1.3002 40.43 1.2302C37.44 0.870195 34.28 0.700195 30.92 0.700195C20.16 0.700195 11.5 2.4802 3.66 6.2902L2.81 6.7002L0 8.06019V11.1902V39.7702V40.3302C0 40.4502 0 40.5802 0 40.7102C0 40.7402 0 40.7602 0 40.7902C0 40.9202 2.29105e-07 41.0502 0.0100002 41.1902C0.0100002 41.2102 0.0100002 41.2302 0.0100002 41.2602C0.0100002 41.3902 0.0200005 41.5302 0.0200005 41.6702C0.0200005 41.6902 0.0200005 41.7002 0.0200005 41.7102C0.0300005 41.8602 0.0300009 42.0102 0.0400009 42.1702C0.0400009 42.2002 0.0400009 42.2202 0.0400009 42.2502C0.0500009 42.4102 0.0599997 42.5802 0.0699997 42.7502C0.0799997 42.9202 0.0900004 43.0902 0.1 43.2702C0.1 43.2902 0.1 43.3102 0.1 43.3402C0.11 43.5202 0.129999 43.6902 0.139999 43.8802C0.139999 43.9002 0.14 43.9202 0.15 43.9402C0.17 44.1302 0.180001 44.3202 0.200001 44.5102C0.220001 44.7002 0.24 44.8902 0.26 45.0802C0.26 45.1102 0.27 45.1402 0.27 45.1702C0.29 45.3602 0.32 45.5602 0.34 45.7602C0.34 45.7702 0.34 45.7802 0.34 45.7902C0.36 45.9802 0.39 46.1802 0.42 46.3802C0.42 46.4102 0.43 46.4402 0.43 46.4602C0.46 46.6602 0.49 46.8702 0.52 47.0702C0.52 47.1002 0.530001 47.1302 0.530001 47.1602C0.560001 47.3602 0.599999 47.5602 0.629999 47.7702C0.629999 47.7802 0.629999 47.7902 0.639999 47.8102C0.679999 48.0202 0.72 48.2302 0.76 48.4502C0.77 48.4902 0.780001 48.5302 0.780001 48.5702C0.820001 48.7902 0.86 49.0002 0.91 49.2202C0.91 49.2302 0.92 49.2502 0.92 49.2602C0.96 49.4702 1.01 49.6802 1.06 49.8902C1.07 49.9302 1.08 49.9702 1.09 50.0102C1.14 50.2302 1.19 50.4502 1.25 50.6702C1.26 50.7102 1.27 50.7502 1.28 50.7802C1.33 50.9902 1.39 51.2002 1.44 51.4202C1.45 51.4402 1.45 51.4602 1.46 51.4902C1.52 51.7202 1.58 51.9402 1.65 52.1702C1.66 52.2202 1.68 52.2602 1.69 52.3102C1.76 52.5402 1.83 52.7702 1.9 53.0002C1.9 53.0202 1.91 53.0302 1.92 53.0502C1.99 53.2702 2.06 53.4902 2.13 53.7102C2.15 53.7602 2.16 53.8002 2.18 53.8502C2.26 54.0802 2.34 54.3102 2.42 54.5402C2.44 54.5802 2.45 54.6302 2.47 54.6702C2.55 54.8802 2.63 55.1002 2.71 55.3202C2.72 55.3502 2.73 55.3802 2.74 55.4102C2.83 55.6402 2.92 55.8802 3.02 56.1102C3.04 56.1602 3.06 56.2102 3.08 56.2602C3.18 56.5002 3.28 56.7302 3.38 56.9702C3.39 56.9802 3.39 57.0002 3.4 57.0102C3.5 57.2402 3.6 57.4602 3.71 57.6902C3.73 57.7402 3.76 57.7902 3.78 57.8402C3.89 58.0702 4 58.3002 4.12 58.5402C4.14 58.5802 4.16 58.6302 4.19 58.6702C4.3 58.8802 4.41 59.1002 4.52 59.3102C4.54 59.3402 4.56 59.3802 4.57 59.4102C4.69 59.6402 4.82 59.8702 4.95 60.1102C4.98 60.1602 5.01 60.2102 5.04 60.2602C5.17 60.5002 5.31 60.7302 5.45 60.9602C5.46 60.9702 5.46 60.9802 5.47 60.9902C5.61 61.2202 5.75 61.4402 5.89 61.6602C5.92 61.7102 5.95 61.7602 5.99 61.8102C6.14 62.0402 6.29 62.2702 6.44 62.4902C6.47 62.5302 6.5 62.5702 6.52 62.6102C6.66 62.8202 6.81 63.0202 6.96 63.2302C6.99 63.2702 7.01 63.3002 7.04 63.3402C7.2 63.5602 7.37 63.7902 7.55 64.0102C7.59 64.0602 7.63 64.1102 7.67 64.1602C7.85 64.3902 8.03 64.6102 8.21 64.8402C8.21 64.8502 8.22 64.8502 8.23 64.8602C8.41 65.0802 8.6 65.3002 8.79 65.5102C8.83 65.5602 8.87 65.6002 8.91 65.6502C9.1 65.8702 9.3 66.0802 9.5 66.2902C9.53 66.3302 9.57 66.3602 9.61 66.4002C9.79 66.5902 9.98 66.7902 10.17 66.9802C10.2 67.0102 10.24 67.0502 10.27 67.0802C10.48 67.2902 10.7 67.4902 10.92 67.7002C10.97 67.7402 11.02 67.7902 11.07 67.8302C11.3 68.0402 11.53 68.2502 11.76 68.4502C19.8 75.3902 27.91 78.2902 28.81 78.6002C28.81 78.6002 30.77 79.3202 30.91 79.3202C31.06 79.3202 33.01 78.6002 33.01 78.6002C33.28 78.5102 34.18 78.1902 35.53 77.6002C35.67 77.5402 35.82 77.4702 35.97 77.4102C36.12 77.3402 36.28 77.2702 36.44 77.2002C36.52 77.1602 36.6 77.1302 36.68 77.0902C36.85 77.0102 37.01 76.9302 37.19 76.8502C37.28 76.8102 37.36 76.7702 37.45 76.7202C37.63 76.6302 37.81 76.5402 37.99 76.4502C38.18 76.3602 38.36 76.2602 38.56 76.1602C39.24 75.8102 39.95 75.4302 40.71 75.0002C43.51 73.4202 46.79 71.2602 50.06 68.4402C50.3 68.2402 50.52 68.0302 50.75 67.8202C50.8 67.7702 50.85 67.7302 50.9 67.6802C51.12 67.4802 51.33 67.2702 51.54 67.0602C51.58 67.0202 51.61 66.9902 51.65 66.9502C51.84 66.7602 52.03 66.5702 52.21 66.3802C52.25 66.3402 52.28 66.3102 52.32 66.2702C52.52 66.0602 52.72 65.8402 52.91 65.6302C52.95 65.5802 52.99 65.5302 53.04 65.4902C53.23 65.2802 53.42 65.0602 53.6 64.8402C53.61 64.8302 53.61 64.8302 53.62 64.8202C53.81 64.6002 53.99 64.3702 54.16 64.1502C54.2 64.1002 54.24 64.0502 54.28 64.0002C54.45 63.7802 54.62 63.5602 54.78 63.3302C54.81 63.2902 54.83 63.2602 54.86 63.2202C55.01 63.0202 55.15 62.8102 55.3 62.6002C55.33 62.5602 55.36 62.5202 55.39 62.4702C55.54 62.2402 55.7 62.0202 55.84 61.7902C55.87 61.7402 55.91 61.6902 55.94 61.6402C56.08 61.4202 56.22 61.1902 56.36 60.9702C56.37 60.9602 56.38 60.9402 56.38 60.9302C56.52 60.7002 56.66 60.4602 56.79 60.2302C56.82 60.1802 56.85 60.1202 56.88 60.0702C57.01 59.8402 57.14 59.6102 57.26 59.3802C57.28 59.3502 57.3 59.3102 57.32 59.2802C57.43 59.0702 57.54 58.8602 57.65 58.6402C57.67 58.6002 57.7 58.5502 57.72 58.5102C57.84 58.2802 57.95 58.0502 58.06 57.8202C58.08 57.7702 58.11 57.7202 58.13 57.6702C58.23 57.4502 58.34 57.2202 58.43 57.0002C58.44 56.9802 58.45 56.9702 58.45 56.9502C58.55 56.7102 58.65 56.4802 58.75 56.2402C58.77 56.1902 58.79 56.1302 58.81 56.0802C58.9 55.8502 59 55.6202 59.09 55.3802C59.1 55.3502 59.11 55.3202 59.13 55.2902C59.21 55.0802 59.29 54.8602 59.37 54.6502C59.39 54.6102 59.4 54.5602 59.42 54.5202C59.5 54.2902 59.58 54.0602 59.66 53.8302C59.68 53.7802 59.69 53.7402 59.71 53.6902C59.78 53.4702 59.85 53.2502 59.92 53.0302C59.93 53.0102 59.93 53.0002 59.94 52.9802C60.01 52.7502 60.08 52.5202 60.15 52.2902C60.16 52.2402 60.18 52.1902 60.19 52.1402C60.26 51.9102 60.32 51.6902 60.38 51.4602C60.39 51.4402 60.39 51.4102 60.4 51.3902C60.46 51.1802 60.51 50.9702 60.56 50.7602C60.57 50.7202 60.58 50.6802 60.59 50.6402C60.64 50.4202 60.7 50.2002 60.75 49.9802C60.76 49.9402 60.77 49.9002 60.78 49.8602C60.83 49.6502 60.87 49.4402 60.92 49.2302C60.92 49.2102 60.93 49.2002 60.93 49.1802C60.98 48.9602 61.02 48.7402 61.06 48.5302C61.07 48.4902 61.08 48.4502 61.08 48.4102C61.12 48.2002 61.16 47.9802 61.2 47.7702C61.2 47.7602 61.2 47.7502 61.21 47.7302C61.25 47.5302 61.28 47.3202 61.31 47.1202C61.32 47.0902 61.32 47.0602 61.33 47.0202C61.36 46.8102 61.39 46.6102 61.42 46.4102C61.42 46.3802 61.43 46.3502 61.43 46.3202C61.46 46.1202 61.48 45.9302 61.51 45.7302C61.51 45.7202 61.51 45.7102 61.51 45.7002C61.54 45.5002 61.56 45.3002 61.58 45.1102C61.58 45.0802 61.59 45.0502 61.59 45.0202C61.61 44.8302 61.63 44.6302 61.65 44.4402C61.67 44.2502 61.69 44.0602 61.7 43.8702C61.7 43.8502 61.7 43.8302 61.71 43.8102C61.73 43.6302 61.74 43.4502 61.75 43.2702C61.75 43.2502 61.75 43.2302 61.75 43.2102C61.77 42.8602 61.79 42.5202 61.81 42.1902C61.81 42.1602 61.81 42.1402 61.81 42.1102C61.82 41.9502 61.82 41.8002 61.83 41.6502C61.83 41.6402 61.83 41.6202 61.83 41.6102C61.83 41.4702 61.84 41.3302 61.84 41.2002C61.84 41.1802 61.84 41.1602 61.84 41.1402C61.84 41.0002 61.85 40.8702 61.85 40.7402C61.85 40.7102 61.85 40.6902 61.85 40.6602C61.85 40.5302 61.85 40.4002 61.85 40.2802V39.7202V11.1902V8.0702L59.02 6.7002ZM19.01 9.9802H20.62V8.5402L21.27 8.2802C22.72 7.7002 24.45 7.39019 26.28 7.39019C27.96 7.39019 29.54 7.6602 30.91 8.1502C32.28 7.6602 33.86 7.39019 35.54 7.39019C37.37 7.39019 39.11 7.7002 40.55 8.2802L41.2 8.5402V9.9802H42.81V21.1402H19.01V9.9802ZM16.61 65.9702C16.08 65.5502 15.56 65.1202 15.03 64.6602C14.84 64.4902 14.65 64.3302 14.47 64.1602C8.13 58.3502 5.99 50.5702 5.3 45.0602C6.75 44.8902 8.17 44.4402 9.5 43.7002C11.7 42.4702 14.23 42.4702 16.44 43.7002C19.89 45.6202 24.01 45.6202 27.46 43.7002C29.66 42.4702 32.19 42.4702 34.4 43.7002C37.85 45.6202 41.97 45.6202 45.42 43.7002C47.62 42.4702 50.15 42.4702 52.36 43.7002C53.69 44.4402 55.11 44.8902 56.56 45.0602C55.87 50.5702 53.73 58.3502 47.39 64.1602C47.21 64.3302 47.02 64.5002 46.83 64.6602C46.3 65.1202 45.76 65.5602 45.23 65.9902C44.75 66.3702 44.26 66.7402 43.79 67.1002L40.69 64.0002L39.59 65.1002V67.9802L40.77 69.1602C35.72 72.3802 31.67 73.7802 31.43 73.8602L30.94 74.0302L30.45 73.8602C30.22 73.7802 26.16 72.3802 21.11 69.1602L22.29 67.9802V65.1002L21.19 64.0002L18.09 67.1002C17.59 66.7402 17.1 66.3602 16.61 65.9702ZM56.84 40.3302C56.84 40.5002 56.84 40.6902 56.84 40.8802C56 40.7502 55.17 40.4802 54.39 40.0402C50.94 38.1202 46.82 38.1202 43.37 40.0402C41.17 41.2702 38.64 41.2702 36.43 40.0402C32.98 38.1202 28.86 38.1202 25.41 40.0402C23.21 41.2702 20.68 41.2702 18.47 40.0402C15.02 38.1202 10.9 38.1202 7.45 40.0402C6.66 40.4802 5.84 40.7602 5 40.8802C5 40.6902 5 40.5002 5 40.3302V36.7302L12.81 28.7602L20.17 36.1802L30.92 25.1302L41.67 36.1802L49.03 28.7602L56.84 36.7302V40.3302Z" fill="#100F0F"/>
<path d="M101.71 10.2703V26.0703C101.71 27.8603 101.33 29.4103 100.57 30.7203C99.81 32.0303 98.71 33.0303 97.29 33.7103C95.86 34.4003 94.18 34.7403 92.23 34.7403C89.29 34.7403 86.97 33.9803 85.28 32.4503C83.59 30.9203 82.73 28.8403 82.69 26.1803V10.2603H88.54V26.2903C88.61 28.9303 89.83 30.2503 92.22 30.2503C93.42 30.2503 94.34 29.9203 94.96 29.2603C95.58 28.6003 95.89 27.5203 95.89 26.0303V10.2603L101.71 10.2703Z" fill="#100F0F"/>
<path d="M127.81 34.4105H122.02L113.46 19.3905V34.4105H107.64V10.2705H113.46L122 25.2905V10.2705H127.8L127.81 34.4105Z" fill="#100F0F"/>
<path d="M139.78 34.4105H133.98V10.2705H139.78V34.4105Z" fill="#100F0F"/>
<path d="M154.52 27.8503L159.33 10.2803H165.83L157.71 34.4203H151.34L143.28 10.2803H149.73L154.52 27.8503Z" fill="#100F0F"/>
<path d="M184.3 24.1703H175.15V29.9403H185.96V34.4203H169.33V10.2803H185.99V14.7703H175.15V19.8603H184.3V24.1703Z" fill="#100F0F"/>
<path d="M200.13 25.8705H196.98V34.4105H191.16V10.2705H200.66C203.52 10.2705 205.76 10.9105 207.38 12.1805C208.99 13.4505 209.8 15.2405 209.8 17.5605C209.8 19.2405 209.46 20.6305 208.78 21.7305C208.1 22.8305 207.04 23.7305 205.59 24.4105L210.63 34.1605V34.4105H204.4L200.13 25.8705ZM196.98 21.4005H200.66C201.77 21.4005 202.6 21.1105 203.16 20.5305C203.72 19.9505 204 19.1405 204 18.0905C204 17.0505 203.72 16.2305 203.15 15.6405C202.59 15.0505 201.76 14.7505 200.66 14.7505H196.98V21.4005Z" fill="#100F0F"/>
<path d="M218.8 57.8602H209.65V63.6302H220.46V68.1102H203.83V43.9702H220.49V48.4602H209.65V53.5502H218.8V57.8602Z" fill="#100F0F"/>
<path d="M234.68 59.5702H231.53V68.1102H225.71V43.9702H235.21C238.07 43.9702 240.31 44.6102 241.93 45.8802C243.54 47.1502 244.35 48.9402 244.35 51.2602C244.35 52.9402 244.01 54.3302 243.33 55.4302C242.65 56.5302 241.59 57.4302 240.14 58.1102L245.18 67.8602V68.1102H238.95L234.68 59.5702ZM231.53 55.1002H235.21C236.32 55.1002 237.15 54.8102 237.71 54.2302C238.27 53.6502 238.55 52.8402 238.55 51.7902C238.55 50.7502 238.27 49.9302 237.7 49.3402C237.14 48.7502 236.31 48.4502 235.21 48.4502H231.53V55.1002Z" fill="#100F0F"/>
<path d="M226.88 28.0004C226.88 27.1504 226.58 26.4904 225.98 26.0104C225.38 25.5404 224.32 25.0404 222.8 24.5304C221.28 24.0204 220.05 23.5304 219.09 23.0504C215.96 21.5104 214.4 19.4004 214.4 16.7204C214.4 15.3804 214.79 14.2004 215.57 13.1804C216.35 12.1604 217.45 11.3604 218.88 10.7904C220.31 10.2204 221.91 9.94043 223.69 9.94043C225.42 9.94043 226.98 10.2504 228.36 10.8704C229.74 11.4904 230.81 12.3704 231.57 13.5104C232.33 14.6504 232.71 15.9604 232.71 17.4304H226.91C226.91 16.4504 226.61 15.6804 226.01 15.1404C225.41 14.6004 224.59 14.3304 223.56 14.3304C222.52 14.3304 221.7 14.5604 221.1 15.0204C220.5 15.4804 220.2 16.0604 220.2 16.7704C220.2 17.3904 220.53 17.9504 221.2 18.4504C221.86 18.9504 223.03 19.4704 224.7 20.0104C226.37 20.5504 227.74 21.1204 228.81 21.7404C231.42 23.2404 232.72 25.3204 232.72 27.9604C232.72 30.0704 231.92 31.7304 230.33 32.9304C228.74 34.1304 226.55 34.7404 223.78 34.7404C221.82 34.7404 220.05 34.3904 218.47 33.6904C216.88 32.9904 215.69 32.0304 214.89 30.8104C214.09 29.5904 213.69 28.1804 213.69 26.5904H219.53C219.53 27.8804 219.86 28.8404 220.53 29.4504C221.2 30.0604 222.28 30.3704 223.79 30.3704C224.75 30.3704 225.51 30.1604 226.07 29.7504C226.6 29.3304 226.88 28.7504 226.88 28.0004Z" fill="#100F0F"/>
<path d="M243.21 34.4105H237.41V10.2705H243.21V34.4105Z" fill="#100F0F"/>
<path d="M281.71 10.2705L276.37 20.7505L271.01 10.2705H246.71V14.7705H253.82V34.4105H259.64V14.7705H267.27L273.42 25.7405V34.4105H279.32V25.7405L287.99 10.2705H281.71Z" fill="#100F0F"/>
<path d="M102.95 56.5406C102.95 58.8906 102.51 60.9806 101.64 62.7906C100.77 64.6006 99.53 66.0006 97.92 66.9806C96.31 67.9606 94.48 68.4506 92.42 68.4506C90.36 68.4506 88.54 67.9806 86.95 67.0306C85.36 66.0806 84.12 64.7306 83.23 62.9806C82.34 61.2306 81.87 59.2106 81.83 56.9306V55.5706C81.83 53.2006 82.26 51.1206 83.13 49.3106C84 47.5006 85.24 46.1106 86.86 45.1206C88.48 44.1406 90.32 43.6406 92.39 43.6406C94.43 43.6406 96.26 44.1306 97.86 45.1006C99.46 46.0706 100.71 47.4606 101.6 49.2506C102.49 51.0506 102.94 53.1006 102.95 55.4306V56.5406ZM97.03 55.5306C97.03 53.1306 96.63 51.3106 95.83 50.0706C95.03 48.8306 93.88 48.2006 92.39 48.2006C89.47 48.2006 87.93 50.3906 87.76 54.7706L87.74 56.5406C87.74 58.9106 88.13 60.7206 88.92 61.9906C89.7 63.2606 90.87 63.9006 92.42 63.9006C93.89 63.9006 95.02 63.2806 95.82 62.0306C96.62 60.7806 97.02 58.9906 97.03 56.6406V55.5306Z" fill="#100F0F"/>
<path d="M123.21 58.4902H113.83V68.1102H108.01V43.9702H124.16V48.4602H113.83V54.0102H123.21V58.4902Z" fill="#100F0F"/>
<path d="M150.65 63.6002H142.68L141.29 68.1102H134.62L143.92 43.9702H149.39L158.31 68.1102H152.06L150.65 63.6002ZM144.07 59.1102H149.26L146.66 50.7402L144.07 59.1102Z" fill="#100F0F"/>
<path d="M167.21 63.6302H177.34V68.1102H161.39V43.9702H167.21V63.6302Z" fill="#100F0F"/>
<path d="M181.09 68.1102V43.9702H189.76C192.87 43.9702 195.23 44.5402 196.85 45.6802C198.47 46.8202 199.28 48.4702 199.28 50.6402C199.28 51.8902 198.99 52.9602 198.42 53.8402C197.84 54.7202 197 55.3802 195.88 55.8002C197.14 56.1302 198.11 56.7502 198.78 57.6602C199.45 58.5702 199.79 59.6702 199.79 60.9802C199.79 63.3502 199.04 65.1202 197.54 66.3102C196.04 67.5002 193.82 68.1002 190.88 68.1302H181.09V68.1102ZM186.9 54.0302H189.93C191.2 54.0202 192.11 53.7902 192.65 53.3302C193.19 52.8802 193.46 52.2002 193.46 51.3202C193.46 50.3002 193.17 49.5702 192.58 49.1202C191.99 48.6702 191.05 48.4502 189.75 48.4502H186.9V54.0302ZM186.9 57.8502V63.6402H190.71C191.76 63.6402 192.57 63.4002 193.13 62.9202C193.69 62.4402 193.98 61.7602 193.98 60.8902C193.98 58.8802 192.98 57.8702 190.98 57.8602H186.9V57.8502Z" fill="#100F0F"/>
<path d="M266.89 48.4602H259.64V68.1102H253.82V48.4602H246.71V43.9702H266.89V48.4602Z" fill="#100F0F"/>
<path d="M280.34 63.6002H272.37L270.98 68.1102H264.76L273.61 43.9702H279.08L288 68.1102H281.75L280.34 63.6002ZM273.76 59.1102H278.95L276.35 50.7402L273.76 59.1102Z" fill="#100F0F"/>
<path d="M30.92 51.2202L27.65 47.9502L26.54 49.0502V51.9302L30.92 56.3002L35.29 51.9302V49.0502L34.18 47.9502L30.92 51.2202Z" fill="#100F0F"/>
<path d="M30.92 59.2402L27.65 55.9702L26.54 57.0702V59.9602L28.37 61.7802L30.92 64.3302L33.46 61.7802L35.29 59.9602V57.0702L34.18 55.9702L30.92 59.2402Z" fill="#100F0F"/>
<path d="M30.92 67.27L27.65 64L26.54 65.1V67.98L28.37 69.81L30.92 72.35L33.46 69.81L35.29 67.98V65.1L34.18 64L30.92 67.27Z" fill="#100F0F"/>
<path d="M43.9301 51.2202L40.6601 47.9502L39.5601 49.0502V51.9302L43.9301 56.3002L48.3001 51.9302V49.0502L47.2001 47.9502L43.9301 51.2202Z" fill="#100F0F"/>
<path d="M43.9301 59.2402L40.6601 55.9702L39.5601 57.0702V59.9602L41.3901 61.7802L43.9301 64.3302L46.4701 61.7802L48.3001 59.9602V57.0702L47.2001 55.9702L43.9301 59.2402Z" fill="#100F0F"/>
<path d="M17.9 51.2202L14.63 47.9502L13.53 49.0502V51.9302L17.9 56.3002L22.27 51.9302V49.0502L21.17 47.9502L17.9 51.2202Z" fill="#100F0F"/>
<path d="M17.9 59.2402L14.63 55.9702L13.53 57.0702V59.9602L15.36 61.7802L17.9 64.3302L20.44 61.7802L22.27 59.9602V57.0702L21.17 55.9702L17.9 59.2402Z" fill="#100F0F"/>
<path d="M22.6801 9.97027V18.5203C23.7901 18.2403 25.0101 18.0903 26.2801 18.0903C27.5501 18.0903 28.7701 18.2403 29.8801 18.5203V9.97027C27.7501 9.30027 24.8201 9.30027 22.6801 9.97027Z" fill="#100F0F"/>
<path d="M31.9399 9.97027V18.5203C33.0499 18.2403 34.2699 18.0903 35.5399 18.0903C36.8099 18.0903 38.0299 18.2403 39.1399 18.5203V9.97027C37.0099 9.30027 34.0799 9.30027 31.9399 9.97027Z" fill="#100F0F"/>
</svg>
